<svg version="1.1" xmlns="http://www.w3.org/2000/svg" viewBox="0 0 786.3363924294711 493.7784580362097" width="786.3363924294711" height="493.7784580362097" class="excalidraw-svg">
  <!-- svg-source:excalidraw -->
  
  <defs>
    <style class="style-fonts">
      
    </style>
    
  </defs>
  <rect x="0" y="0" width="786.3363924294711" height="493.7784580362097" fill="#ffffff"></rect><g stroke-linecap="round" transform="translate(78.79998779296875 10) rotate(0 348.4000244140625 224.4000015258789)"><path d="M32 0 C162.91 -1.61, 293.08 -1.97, 664.8 0 M32 0 C219 -2.31, 406.76 -2.24, 664.8 0 M664.8 0 C684.19 -1.27, 696.13 10.86, 696.8 32 M664.8 0 C688.1 0.38, 696.09 10.4, 696.8 32 M696.8 32 C697.76 171.49, 699.64 311.98, 696.8 416.8 M696.8 32 C695.87 167.62, 696.56 302.02, 696.8 416.8 M696.8 416.8 C697 436.66, 685.57 450.53, 664.8 448.8 M696.8 416.8 C696.93 437.23, 686.89 450.1, 664.8 448.8 M664.8 448.8 C515.56 449.12, 366.93 450.27, 32 448.8 M664.8 448.8 C464.4 448.51, 263.16 448.55, 32 448.8 M32 448.8 C8.78 449.85, -1.59 436.69, 0 416.8 M32 448.8 C9 447.78, -1.48 439.17, 0 416.8 M0 416.8 C-0.13 325.96, 1.33 233.3, 0 32 M0 416.8 C-0.66 332.36, -0.37 247.69, 0 32 M0 32 C-0.4 12.04, 12.06 0.13, 32 0 M0 32 C0.05 9.96, 9.44 -0.18, 32 0" stroke="#1e1e1e" stroke-width="2" fill="none"></path></g><g stroke-linecap="round"><g transform="translate(78 57.99998474121094) rotate(0 348.8000183105469 -1.5999908447265625)"><path d="M0.84 0.91 C117.22 0.59, 582.29 -2.05, 698.34 -2.57 M-0.19 0.35 C116.1 -0.26, 581.73 -3.63, 697.77 -4.36" stroke="#1e1e1e" stroke-width="2" fill="none"></path></g></g><mask></mask><g stroke-linecap="round" transform="translate(102 21.199996948242188) rotate(0 16.399993896484375 14)"><path d="M13.72 0.08 C16.98 -0.42, 21.44 0.76, 24.45 2.36 C27.45 3.97, 30.54 6.94, 31.77 9.7 C32.99 12.45, 32.97 16.1, 31.81 18.87 C30.65 21.64, 27.87 24.83, 24.78 26.33 C21.7 27.84, 16.74 28.46, 13.29 27.89 C9.84 27.33, 6.29 25.35, 4.09 22.93 C1.88 20.5, 0 16.31, 0.06 13.34 C0.12 10.37, 2.16 7.35, 4.44 5.09 C6.72 2.83, 12.12 0.65, 13.73 -0.2 C15.35 -1.06, 14.02 -0.32, 14.12 -0.04 M19.72 -0.35 C22.89 0, 26.41 2.85, 28.48 5.31 C30.55 7.76, 32 11.49, 32.16 14.38 C32.33 17.27, 31.61 20.5, 29.48 22.66 C27.35 24.82, 22.86 26.69, 19.39 27.34 C15.91 28, 11.6 28.13, 8.63 26.58 C5.66 25.04, 2.73 20.88, 1.59 18.07 C0.44 15.25, 0.66 12.37, 1.76 9.69 C2.85 7.02, 5.24 3.6, 8.16 2.02 C11.07 0.45, 17.32 0.41, 19.26 0.25 C21.21 0.1, 19.84 0.82, 19.82 1.09" stroke="#1e1e1e" stroke-width="2" fill="none"></path></g><g stroke-linecap="round"><g transform="translate(143.5999755859375 36.40000915527344) rotate(0 11.600006103515625 0.399993896484375)"><path d="M0.19 0.45 C3.98 0.69, 19.11 0.87, 22.88 1 M-0.37 0.2 C3.58 0.32, 19.89 0.11, 23.95 0.14" stroke="#1e1e1e" stroke-width="2" fill="none"></path></g></g><mask></mask><g stroke-linecap="round"><g transform="translate(482.79998779296875 20.399993896484375) rotate(0 0.4000244140625 12.400001525878906)"><path d="M0.24 0.02 C0.43 4.22, 0.8 20.64, 0.97 24.86 M-0.31 -0.44 C-0.16 3.88, 0.39 21.43, 0.63 25.59" stroke="#1e1e1e" stroke-width="2" fill="none"></path></g></g><mask></mask><g stroke-linecap="round"><g transform="translate(537.6673734023293 21.428203409935804) rotate(0 0.4000244140625 12.400001525878906)"><path d="M0.26 0.17 C0.4 4.39, 0.77 20.84, 0.83 24.95 M-0.26 -0.22 C-0.19 3.85, 0.34 19.78, 0.42 24.07" stroke="#1e1e1e" stroke-width="2" fill="none"></path></g></g><mask></mask><g stroke-linecap="round"><g transform="translate(592.0673367812357 19.028178995873304) rotate(0 0.4000244140625 12.400001525878906)"><path d="M-0.01 0.53 C0.14 4.68, 0.22 21.01, 0.37 25.02 M-0.67 0.32 C-0.31 4.3, 1.18 20.04, 1.38 24.17" stroke="#1e1e1e" stroke-width="2" fill="none"></path></g></g><mask></mask><g stroke-linecap="round"><g transform="translate(656.0674588515482 19.028178995873304) rotate(0 0.4000244140625 12.400001525878906)"><path d="M-0.35 -0.33 C-0.28 3.86, 0.57 21.08, 0.71 25.24 M0.47 0.69 C0.44 4.72, 0.31 20.42, 0.23 24.5" stroke="#1e1e1e" stroke-width="2" fill="none"></path></g></g><mask></mask><g stroke-linecap="round"><g transform="translate(129.20001220703125 59.59999084472656) rotate(0 0 200)"><path d="M-0.83 -0.69 C-0.83 66.11, 0.41 333.63, 0.47 400.58 M0.94 1.56 C0.77 68.03, 0.17 332.49, -0.24 398.76" stroke="#1e1e1e" stroke-width="2" fill="none"></path></g></g><mask></mask><g stroke-linecap="round" transform="translate(93.20001220703125 79.59999084472656) rotate(0 10.399993896484375 10.400009155273438)"><path d="M8.59 -0.25 C10.63 -0.9, 13.34 -0.26, 15.27 0.92 C17.21 2.1, 19.29 4.7, 20.19 6.83 C21.09 8.95, 21.4 11.57, 20.67 13.67 C19.95 15.77, 17.79 18.19, 15.85 19.44 C13.92 20.68, 11.34 21.44, 9.08 21.14 C6.81 20.84, 3.81 19.39, 2.27 17.61 C0.73 15.83, -0.22 12.74, -0.17 10.46 C-0.12 8.18, 1.08 5.67, 2.59 3.92 C4.1 2.17, 7.87 0.5, 8.9 -0.03 C9.94 -0.56, 8.88 0.51, 8.8 0.74 M12.76 -0.06 C14.95 0.42, 18.02 2.47, 19.26 4.41 C20.5 6.35, 20.3 9.49, 20.21 11.57 C20.12 13.65, 20.03 15.43, 18.71 16.89 C17.39 18.35, 14.54 19.92, 12.29 20.34 C10.04 20.76, 7.17 20.58, 5.21 19.42 C3.25 18.26, 1.23 15.53, 0.54 13.37 C-0.16 11.21, 0.09 8.47, 1.04 6.44 C1.98 4.41, 4.17 2.18, 6.21 1.18 C8.25 0.19, 12.12 0.62, 13.28 0.46 C14.45 0.29, 13.43 0.02, 13.2 0.18" stroke="#1e1e1e" stroke-width="2" fill="none"></path></g><g stroke-linecap="round" transform="translate(93.20004272460938 118) rotate(0 10.399993896484375 10.400009155273438)"><path d="M8.89 0.48 C10.99 0.02, 14.67 0.23, 16.65 1.35 C18.64 2.48, 20.2 5, 20.8 7.24 C21.4 9.48, 21.19 12.72, 20.23 14.79 C19.27 16.86, 17.08 18.72, 15.05 19.68 C13.02 20.64, 10.18 21.09, 8.07 20.57 C5.95 20.05, 3.65 18.37, 2.37 16.58 C1.09 14.79, 0.25 12.1, 0.39 9.84 C0.53 7.58, 1.77 4.64, 3.23 3.02 C4.7 1.4, 8.04 0.61, 9.19 0.13 C10.34 -0.36, 10.11 0.06, 10.13 0.13 M11.67 0.59 C13.75 0.75, 16.31 2.34, 17.8 3.93 C19.28 5.52, 20.56 7.88, 20.57 10.12 C20.58 12.36, 19.26 15.65, 17.86 17.4 C16.46 19.15, 14.37 20.24, 12.16 20.63 C9.95 21.01, 6.6 20.85, 4.6 19.7 C2.61 18.56, 0.82 15.99, 0.18 13.77 C-0.46 11.56, 0.02 8.56, 0.78 6.42 C1.55 4.28, 2.9 2.06, 4.75 0.93 C6.6 -0.21, 10.79 -0.28, 11.9 -0.37 C13 -0.46, 11.36 0.06, 11.38 0.38" stroke="#1e1e1e" stroke-width="2" fill="none"></path></g><g stroke-linecap="round" transform="translate(93.99996948242188 159.5999755859375) rotate(0 10.399993896484375 10.400009155273438)"><path d="M9.66 -0.38 C11.86 -0.9, 14.47 -0.08, 16.28 1.27 C18.09 2.62, 19.86 5.58, 20.53 7.73 C21.19 9.88, 21.15 12.17, 20.27 14.18 C19.39 16.19, 17.24 18.67, 15.24 19.79 C13.25 20.9, 10.55 21.39, 8.3 20.87 C6.06 20.35, 3.12 18.45, 1.78 16.66 C0.44 14.87, 0.1 12.28, 0.26 10.12 C0.41 7.97, 1.15 5.5, 2.7 3.74 C4.26 1.98, 8.5 0.17, 9.59 -0.43 C10.68 -1.02, 9.3 -0.1, 9.26 0.18 M13.46 0.32 C15.54 0.61, 17.74 1.94, 18.98 3.62 C20.21 5.3, 21.04 7.98, 20.87 10.39 C20.7 12.81, 19.6 16.3, 17.96 18.12 C16.32 19.93, 13.25 21.07, 11.01 21.29 C8.77 21.51, 6.31 20.67, 4.52 19.41 C2.73 18.16, 0.81 15.98, 0.28 13.76 C-0.26 11.53, 0.38 8.21, 1.3 6.08 C2.23 3.94, 3.91 1.92, 5.82 0.94 C7.74 -0.03, 11.54 0.32, 12.8 0.23 C14.06 0.13, 13.49 0.17, 13.41 0.37" stroke="#1e1e1e" stroke-width="2" fill="none"></path></g><g stroke-linecap="round" transform="translate(93.19998168945312 195.5999755859375) rotate(0 10.399993896484375 10.400009155273438)"><path d="M8.99 -0.34 C11.14 -0.56, 14.53 0.7, 16.43 2.08 C18.34 3.45, 19.75 5.75, 20.4 7.9 C21.05 10.05, 21.17 13.02, 20.33 14.99 C19.5 16.95, 17.45 18.72, 15.38 19.71 C13.32 20.71, 10.14 21.48, 7.92 20.95 C5.7 20.41, 3.43 18.38, 2.08 16.51 C0.73 14.65, -0.38 12, -0.17 9.75 C0.04 7.51, 1.67 4.73, 3.32 3.03 C4.98 1.33, 8.53 0.05, 9.75 -0.46 C10.98 -0.96, 10.6 -0.25, 10.66 0.01 M7.87 0.47 C9.98 0.02, 13.67 1.04, 15.7 2.05 C17.72 3.06, 19.27 4.6, 20.04 6.51 C20.81 8.41, 21.14 11.37, 20.34 13.5 C19.53 15.62, 17.09 18.07, 15.22 19.26 C13.35 20.45, 11.19 20.98, 9.12 20.62 C7.06 20.27, 4.35 18.77, 2.83 17.14 C1.32 15.5, 0.17 13.12, 0.03 10.81 C-0.11 8.49, 0.49 5.1, 2.01 3.26 C3.53 1.41, 7.98 0.26, 9.16 -0.26 C10.34 -0.79, 9.29 -0.14, 9.09 0.11" stroke="#1e1e1e" stroke-width="2" fill="none"></path></g><g stroke-linecap="round" transform="translate(93.19998168945312 237.99996948242188) rotate(0 10.399993896484375 10.400009155273438)"><path d="M11.03 0.16 C13.19 0.24, 16.53 1.91, 18.23 3.45 C19.93 5, 21.1 7.19, 21.22 9.42 C21.35 11.65, 20.43 14.93, 18.99 16.82 C17.56 18.7, 14.75 20.25, 12.61 20.74 C10.46 21.23, 8.11 20.81, 6.14 19.75 C4.18 18.69, 1.71 16.41, 0.81 14.39 C-0.1 12.37, 0.15 9.79, 0.72 7.62 C1.3 5.44, 2.44 2.53, 4.26 1.35 C6.08 0.18, 10.26 0.69, 11.67 0.59 C13.07 0.48, 12.7 0.54, 12.7 0.71 M12.61 0.44 C14.76 0.75, 16.91 2.33, 18.22 3.95 C19.53 5.56, 20.43 7.97, 20.47 10.14 C20.5 12.3, 19.69 15.16, 18.43 16.94 C17.17 18.72, 15.09 20.51, 12.93 20.83 C10.76 21.14, 7.48 19.9, 5.44 18.83 C3.41 17.77, 1.61 16.35, 0.73 14.43 C-0.14 12.52, -0.48 9.42, 0.22 7.34 C0.91 5.26, 2.97 3.12, 4.9 1.95 C6.82 0.77, 10.5 0.66, 11.76 0.27 C13.02 -0.12, 12.4 -0.58, 12.45 -0.4" stroke="#1e1e1e" stroke-width="2" fill="none"></path></g><g stroke-linecap="round" transform="translate(10 61.99998474121094) rotate(0 34.79998779296875 196.00001525878906)"><path d="M17.4 0 C27.6 1.15, 39.65 -2.22, 52.2 0 M17.4 0 C31.89 0.1, 45.36 0.36, 52.2 0 M52.2 0 C64.09 1.14, 70.16 6.23, 69.6 17.4 M52.2 0 C63.72 -0.35, 71.73 6.46, 69.6 17.4 M69.6 17.4 C68.88 124.16, 70.41 232.02, 69.6 374.6 M69.6 17.4 C70.82 120.12, 70.45 222.57, 69.6 374.6 M69.6 374.6 C70.36 386.83, 63.81 392.74, 52.2 392 M69.6 374.6 C70.88 384.79, 61.81 391.27, 52.2 392 M52.2 392 C39.12 393.62, 30.1 393.5, 17.4 392 M52.2 392 C38.19 392.38, 26.3 393.04, 17.4 392 M17.4 392 C7.7 392.31, -0.64 388.11, 0 374.6 M17.4 392 C4.67 393.2, -0.82 386.04, 0 374.6 M0 374.6 C2.85 235.8, 2.69 94.72, 0 17.4 M0 374.6 C0.42 282.16, 1.3 189.78, 0 17.4 M0 17.4 C1.55 5.77, 6.12 -0.38, 17.4 0 M0 17.4 C-0.35 7.62, 5.61 0.02, 17.4 0" stroke="#1e1e1e" stroke-width="2" fill="none"></path></g><g stroke-linecap="round"><g transform="translate(33.20001220703125 482.8000030517578) rotate(0 58.79998779296875 0)"><path d="M1.04 0.98 C20.65 0.98, 97.29 0.65, 116.55 0.6 M0.12 0.45 C20.2 0.04, 98.9 -0.92, 118.71 -1.21" stroke="#1e1e1e" stroke-width="2" fill="none"></path></g><g transform="translate(33.20001220703125 482.8000030517578) rotate(0 58.79998779296875 0)"><path d="M95.33 7.65 C101.71 3.89, 105.86 2.2, 118.71 -1.21 M95.33 7.65 C103.19 4.22, 111.68 1.81, 118.71 -1.21" stroke="#1e1e1e" stroke-width="2" fill="none"></path></g><g transform="translate(33.20001220703125 482.8000030517578) rotate(0 58.79998779296875 0)"><path d="M95.11 -9.44 C101.61 -9.71, 105.81 -7.9, 118.71 -1.21 M95.11 -9.44 C103.12 -6.75, 111.68 -3.03, 118.71 -1.21" stroke="#1e1e1e" stroke-width="2" fill="none"></path></g></g><mask></mask><g transform="translate(20.399993896484375 103.59999084472656) rotate(0 16.800003051757812 0.4000091552734375)" stroke="none"><path fill="#1e1e1e" d="M 0,-5.21 Q 0,-5.21 1.61,-5.29 3.22,-5.37 6.01,-5.57 8.81,-5.76 11.13,-5.55 13.44,-5.34 15.88,-5.44 18.32,-5.53 20.77,-5.62 23.21,-5.71 25.57,-5.79 27.92,-5.87 30.42,-5.91 32.91,-5.95 33.99,-5.77 35.07,-5.60 36.03,-5.09 37.00,-4.57 37.75,-3.78 38.50,-2.99 38.96,-1.99 39.42,-1.00 39.54,0.07 39.66,1.16 39.42,2.23 39.19,3.30 38.62,4.23 38.06,5.17 37.23,5.88 36.39,6.58 35.38,6.99 34.36,7.39 33.27,7.45 32.18,7.51 31.13,7.22 30.07,6.93 29.17,6.31 28.26,5.70 27.60,4.83 26.94,3.96 26.59,2.92 26.24,1.89 26.24,0.79 26.24,-0.29 26.59,-1.32 26.94,-2.36 27.60,-3.23 28.26,-4.10 29.17,-4.71 30.07,-5.33 31.13,-5.62 32.18,-5.91 33.27,-5.85 34.36,-5.79 35.38,-5.39 36.39,-4.98 37.23,-4.28 38.06,-3.57 38.62,-2.63 39.19,-1.69 39.42,-0.63 39.66,0.43 39.54,1.52 39.42,2.60 38.96,3.60 38.50,4.59 37.75,5.38 37.00,6.17 36.03,6.69 35.07,7.20 33.99,7.37 32.91,7.55 32.91,7.55 32.91,7.55 30.42,7.51 27.92,7.47 25.57,7.39 23.21,7.31 20.73,7.21 18.25,7.12 15.55,6.97 12.85,6.82 10.62,6.29 8.40,5.76 5.81,5.57 3.22,5.37 1.61,5.29 0,5.21 -0.62,5.13 -1.24,5.05 -1.83,4.83 -2.42,4.61 -2.93,4.25 -3.45,3.89 -3.87,3.42 -4.28,2.95 -4.57,2.40 -4.87,1.84 -5.02,1.23 -5.17,0.62 -5.17,-0.00 -5.17,-0.62 -5.02,-1.23 -4.87,-1.84 -4.57,-2.40 -4.28,-2.96 -3.87,-3.43 -3.45,-3.90 -2.93,-4.25 -2.42,-4.61 -1.83,-4.83 -1.24,-5.05 -0.62,-5.13 0.00,-5.21 0.00,-5.21 L 0,-5.21 Z"></path></g><g transform="translate(23.600006103515625 141.1999969482422) rotate(0 22.800003051757812 3.1999969482421875)" stroke="none"><path fill="#1e1e1e" d="M 1.10,-4.40 Q 1.10,-4.40 5.64,-3.01 10.17,-1.61 14.14,-0.52 18.10,0.57 22.17,1.32 26.23,2.07 28.89,2.17 31.54,2.27 33.76,2.21 35.99,2.16 40.56,2.04 45.13,1.92 45.85,2.05 46.56,2.17 47.19,2.52 47.83,2.86 48.32,3.39 48.81,3.92 49.11,4.58 49.40,5.24 49.47,5.96 49.54,6.68 49.38,7.38 49.22,8.09 48.84,8.70 48.46,9.32 47.90,9.78 47.35,10.24 46.67,10.50 46.00,10.76 45.28,10.79 44.55,10.82 43.86,10.62 43.17,10.42 42.57,10.01 41.98,9.60 41.55,9.02 41.12,8.44 40.89,7.75 40.67,7.06 40.68,6.34 40.69,5.62 40.93,4.94 41.16,4.25 41.61,3.68 42.05,3.11 42.65,2.71 43.26,2.32 43.95,2.13 44.65,1.94 45.37,1.99 46.09,2.04 46.76,2.31 47.43,2.59 47.98,3.06 48.52,3.54 48.89,4.16 49.25,4.78 49.40,5.49 49.55,6.20 49.46,6.91 49.38,7.63 49.06,8.28 48.75,8.94 48.25,9.46 47.75,9.97 47.11,10.31 46.46,10.64 45.75,10.75 45.04,10.86 45.04,10.86 45.04,10.86 42.49,10.77 39.95,10.68 37.76,10.49 35.58,10.29 33.19,10.01 30.80,9.73 28.01,9.29 25.22,8.85 20.81,8.33 16.39,7.82 12.30,7.01 8.22,6.21 3.55,5.31 -1.10,4.40 -1.61,4.20 -2.12,4.01 -2.57,3.70 -3.02,3.38 -3.38,2.97 -3.74,2.56 -3.99,2.08 -4.25,1.59 -4.38,1.06 -4.50,0.53 -4.50,-0.01 -4.50,-0.56 -4.37,-1.09 -4.24,-1.62 -3.98,-2.10 -3.72,-2.59 -3.36,-3.00 -2.99,-3.40 -2.54,-3.71 -2.09,-4.02 -1.58,-4.22 -1.07,-4.41 -0.52,-4.47 0.01,-4.54 0.55,-4.47 1.10,-4.40 1.10,-4.40 L 1.10,-4.40 Z"></path></g><g transform="translate(27.600006103515625 181.99998474121094) rotate(0 15.199996948242188 2.4000091552734375)" stroke="none"><path fill="#1e1e1e" d="M 1.63,-4.91 Q 1.63,-4.91 4.38,-3.97 7.12,-3.02 9.26,-2.75 11.40,-2.48 13.89,-2.11 16.38,-1.74 19.57,-1.37 22.77,-1.01 24.90,-1.06 27.03,-1.11 28.59,-1.11 30.15,-1.11 31.09,-0.96 32.04,-0.80 32.88,-0.34 33.73,0.10 34.38,0.80 35.04,1.49 35.44,2.36 35.83,3.23 35.93,4.19 36.03,5.14 35.82,6.07 35.61,7.01 35.12,7.83 34.62,8.64 33.89,9.26 33.16,9.88 32.26,10.23 31.37,10.58 30.42,10.63 29.46,10.67 28.54,10.41 27.62,10.15 26.83,9.61 26.04,9.07 25.46,8.31 24.89,7.54 24.58,6.63 24.28,5.73 24.29,4.77 24.29,3.81 24.60,2.91 24.91,2.00 25.49,1.24 26.07,0.48 26.87,-0.04 27.66,-0.58 28.59,-0.83 29.51,-1.08 30.47,-1.03 31.42,-0.97 32.31,-0.61 33.20,-0.25 33.93,0.36 34.65,0.98 35.14,1.81 35.63,2.63 35.83,3.56 36.04,4.50 35.93,5.45 35.82,6.40 35.41,7.27 35.01,8.14 34.35,8.83 33.69,9.52 32.84,9.97 31.99,10.41 31.04,10.56 30.10,10.71 30.10,10.71 30.10,10.71 27.49,10.60 24.88,10.48 22.48,10.10 20.08,9.72 17.40,9.14 14.72,8.56 12.28,8.14 9.84,7.72 6.87,7.21 3.91,6.70 1.13,5.81 -1.63,4.91 -2.20,4.64 -2.76,4.38 -3.25,3.98 -3.73,3.59 -4.11,3.09 -4.48,2.59 -4.73,2.01 -4.97,1.44 -5.07,0.82 -5.17,0.21 -5.12,-0.41 -5.07,-1.03 -4.87,-1.62 -4.68,-2.21 -4.34,-2.74 -4.01,-3.27 -3.56,-3.70 -3.11,-4.14 -2.57,-4.45 -2.03,-4.76 -1.43,-4.93 -0.83,-5.11 -0.20,-5.13 0.41,-5.16 1.02,-5.03 1.63,-4.91 1.63,-4.91 L 1.63,-4.91 Z"></path></g><g transform="translate(25.199981689453125 224.40000915527344) rotate(0 19.199996948242188 -0.4000091552734375)" stroke="none"><path fill="#1e1e1e" d="M -0.14,-4.21 Q -0.14,-4.21 6.76,-4.23 13.67,-4.25 18.70,-4.19 23.73,-4.13 27.48,-4.18 31.23,-4.23 34.15,-4.39 37.08,-4.55 37.68,-4.46 38.28,-4.37 38.82,-4.08 39.36,-3.80 39.79,-3.36 40.21,-2.93 40.47,-2.37 40.73,-1.82 40.80,-1.22 40.87,-0.61 40.75,-0.02 40.62,0.57 40.31,1.10 40.00,1.62 39.54,2.02 39.08,2.42 38.51,2.65 37.95,2.88 37.34,2.92 36.73,2.96 36.14,2.80 35.55,2.64 35.05,2.30 34.54,1.96 34.17,1.48 33.79,1.00 33.59,0.42 33.39,-0.14 33.39,-0.75 33.38,-1.36 33.57,-1.94 33.76,-2.52 34.13,-3.01 34.49,-3.50 35.00,-3.84 35.50,-4.19 36.08,-4.36 36.67,-4.53 37.28,-4.50 37.89,-4.47 38.46,-4.25 39.02,-4.03 39.49,-3.64 39.96,-3.25 40.28,-2.73 40.60,-2.21 40.73,-1.61 40.87,-1.02 40.81,-0.41 40.75,0.18 40.50,0.74 40.25,1.30 39.83,1.74 39.41,2.19 38.88,2.48 38.34,2.77 37.74,2.87 37.14,2.98 37.14,2.98 37.14,2.98 34.23,2.86 31.31,2.75 27.59,2.78 23.87,2.82 18.89,3.07 13.92,3.33 7.03,3.77 0.14,4.21 -0.36,4.16 -0.87,4.12 -1.35,3.96 -1.83,3.79 -2.26,3.52 -2.68,3.24 -3.03,2.87 -3.38,2.50 -3.63,2.06 -3.89,1.62 -4.02,1.13 -4.16,0.64 -4.18,0.13 -4.20,-0.36 -4.09,-0.86 -3.98,-1.36 -3.76,-1.82 -3.54,-2.27 -3.22,-2.66 -2.89,-3.06 -2.49,-3.36 -2.08,-3.66 -1.61,-3.86 -1.14,-4.05 -0.64,-4.13 -0.14,-4.21 -0.14,-4.21 L -0.14,-4.21 Z"></path></g><g transform="translate(27.600006103515625 256.40000915527344) rotate(0 18.400009155273438 0.399993896484375)" stroke="none"><path fill="#1e1e1e" d="M 0,-5.28 Q 0,-5.28 2.06,-5.34 4.13,-5.40 8.41,-5.47 12.68,-5.55 17.06,-5.60 21.43,-5.64 24.02,-5.76 26.61,-5.87 28.85,-5.97 31.09,-6.08 34.09,-5.73 37.10,-5.39 38.07,-5.14 39.04,-4.88 39.88,-4.33 40.71,-3.78 41.33,-2.99 41.95,-2.20 42.29,-1.26 42.62,-0.31 42.63,0.68 42.65,1.68 42.34,2.64 42.04,3.59 41.44,4.40 40.85,5.21 40.02,5.78 39.20,6.36 38.24,6.64 37.28,6.92 36.27,6.88 35.27,6.84 34.34,6.48 33.40,6.13 32.63,5.49 31.85,4.85 31.32,4.00 30.79,3.15 30.56,2.17 30.33,1.19 30.43,0.20 30.52,-0.79 30.93,-1.71 31.34,-2.63 32.02,-3.36 32.69,-4.10 33.57,-4.58 34.45,-5.07 35.44,-5.24 36.43,-5.42 37.42,-5.27 38.41,-5.12 39.30,-4.67 40.20,-4.21 40.90,-3.49 41.60,-2.77 42.03,-1.87 42.47,-0.97 42.59,0.02 42.71,1.02 42.51,2.00 42.31,2.98 41.80,3.85 41.30,4.71 40.54,5.37 39.79,6.03 38.86,6.42 37.94,6.80 36.94,6.87 35.94,6.94 35.94,6.94 35.94,6.94 33.51,6.51 31.09,6.08 28.85,5.97 26.61,5.87 24.02,5.76 21.43,5.64 17.06,5.60 12.68,5.55 8.41,5.47 4.13,5.40 2.06,5.34 0,5.28 -0.63,5.21 -1.26,5.13 -1.86,4.90 -2.45,4.68 -2.98,4.32 -3.50,3.95 -3.93,3.48 -4.35,3.00 -4.64,2.44 -4.94,1.87 -5.09,1.25 -5.25,0.63 -5.25,-0.00 -5.25,-0.63 -5.09,-1.25 -4.94,-1.87 -4.64,-2.44 -4.35,-3.00 -3.93,-3.48 -3.50,-3.95 -2.98,-4.32 -2.45,-4.68 -1.86,-4.91 -1.26,-5.13 -0.63,-5.21 0.00,-5.28 0.00,-5.28 L 0,-5.28 Z"></path></g><g stroke-linecap="round" transform="translate(167.5999755859375 137.99998474121094) rotate(0 286.8000183105469 121.19999694824219)"><path d="M32 0 C174.63 -0.49, 317.05 -1.21, 541.6 0 M32 0 C195.39 -0.31, 359.22 -0.4, 541.6 0 M541.6 0 C563.98 0.01, 574.68 11.72, 573.6 32 M541.6 0 C563.3 -1.48, 573.17 12.35, 573.6 32 M573.6 32 C575.21 100.24, 576.1 168.14, 573.6 210.4 M573.6 32 C571.93 101.64, 571.77 168.77, 573.6 210.4 M573.6 210.4 C575.18 229.99, 562.76 241.22, 541.6 242.4 M573.6 210.4 C573.4 232.74, 562.57 244.06, 541.6 242.4 M541.6 242.4 C396.97 242.7, 252.84 242.17, 32 242.4 M541.6 242.4 C393.98 244.42, 246.4 244.61, 32 242.4 M32 242.4 C10.26 242.6, -1.46 231.65, 0 210.4 M32 242.4 C9.38 242.64, 1.66 232.97, 0 210.4 M0 210.4 C-1.13 141.55, -0.48 72.73, 0 32 M0 210.4 C-1.83 154.38, -1.25 99.94, 0 32 M0 32 C1.35 12.61, 12.53 1.87, 32 0 M0 32 C1.12 9.63, 10.38 -0.97, 32 0" stroke="#1e1e1e" stroke-width="2" fill="none"></path></g><g stroke-linecap="round"><g transform="translate(168.4000244140625 175.59999084472656) rotate(0 287.1999816894531 0.8000030517578125)"><path d="M-0.97 1.05 C94.5 1.4, 477.55 2.03, 573.59 2.23 M0.71 0.56 C96.5 0.55, 480.18 0.49, 575.88 0.45" stroke="#1e1e1e" stroke-width="2" fill="none"></path></g></g><mask></mask><g stroke-linecap="round"><g transform="translate(244.4000244140625 137.99998474121094) rotate(0 -0.4000244140625 121.60002136230469)"><path d="M-0.23 -1.15 C-0.44 39.38, -0.63 202.14, -0.89 242.91 M-1.81 0.86 C-2.22 41.59, -2.28 203.61, -1.88 244.3" stroke="#1e1e1e" stroke-width="2" fill="none"></path></g></g><mask></mask><g stroke-linecap="round"><g transform="translate(314.3920448013423 138.8261430519866) rotate(0 -0.4000244140625 121.60002136230469)"><path d="M0.76 -0.07 C0.68 40.46, 0.07 203.21, -0.13 243.87 M-0.3 -1.14 C-0.52 38.97, -0.61 201.58, -0.73 242.1" stroke="#1e1e1e" stroke-width="2" fill="none"></path></g></g><mask></mask><g stroke-linecap="round"><g transform="translate(385.5921180435298 140.42621019065845) rotate(0 -0.4000244140625 121.60002136230469)"><path d="M0.43 0.07 C0.04 40.48, -1.14 202.33, -1.26 242.77 M-0.8 -0.93 C-1.49 39.62, -2.45 203.3, -2.45 244.08" stroke="#1e1e1e" stroke-width="2" fill="none"></path></g></g><mask></mask><g stroke-linecap="round"><g transform="translate(462.39210583649856 139.6261918801116) rotate(0 -0.4000244140625 121.60002136230469)"><path d="M0.27 -0.38 C0.23 40.23, -0.42 202.35, -0.5 242.79 M-1.05 -1.63 C-1.19 39.23, -1.35 203.33, -1.29 244.12" stroke="#1e1e1e" stroke-width="2" fill="none"></path></g></g><mask></mask><g stroke-linecap="round"><g transform="translate(542.3921058364986 138.82620408714286) rotate(0 -0.4000244140625 121.60002136230469)"><path d="M-0.99 -0.96 C-1.39 39.72, -1.36 203.11, -1.39 243.88 M0.7 1.16 C0.61 41.5, 1.49 202.04, 1.02 242.12" stroke="#1e1e1e" stroke-width="2" fill="none"></path></g></g><mask></mask><g stroke-linecap="round"><g transform="translate(618.3919837661861 138.82617356956473) rotate(0 -0.4000244140625 121.60002136230469)"><path d="M0.29 -0.55 C0.14 39.78, -0.44 201.75, -0.53 242.37 M-1.02 1.77 C-1.34 42.2, -1.38 203.02, -1.34 243.47" stroke="#1e1e1e" stroke-width="2" fill="none"></path></g></g><mask></mask><g stroke-linecap="round" transform="translate(627.6001586914062 242.8000030517578) rotate(0 14.79998779296875 8)"><path d="M4 0 C9.36 1.08, 14.58 -1.67, 25.6 0 M4 0 C11.69 -0.44, 17.67 0.83, 25.6 0 M25.6 0 C26.69 -0.59, 30.22 0, 29.6 4 M25.6 0 C29.45 -1.36, 31.13 -0.11, 29.6 4 M29.6 4 C28.9 5.55, 29.57 7.02, 29.6 12 M29.6 4 C29.54 6.08, 29.68 7.62, 29.6 12 M29.6 12 C29.29 16.08, 26.46 16.85, 25.6 16 M29.6 12 C30.85 12.58, 27.99 16.41, 25.6 16 M25.6 16 C18.76 17.06, 8.98 17.62, 4 16 M25.6 16 C20.03 15.93, 15.75 15.28, 4 16 M4 16 C-0.06 15.52, -0.87 15.48, 0 12 M4 16 C2.22 17.98, -2.09 14.3, 0 12 M0 12 C0.04 10.15, 0.31 9.08, 0 4 M0 12 C0.13 9.81, 0.14 7.56, 0 4 M0 4 C-0.81 3.19, -0.38 -0.4, 4 0 M0 4 C-1.93 -0.01, -0.18 -2.29, 4 0" stroke="#1e1e1e" stroke-width="2" fill="none"></path></g><g stroke-linecap="round" transform="translate(668.800048828125 241.20001220703125) rotate(0 14.79998779296875 8)"><path d="M4 0 C10.88 -1.42, 17.99 1.06, 25.6 0 M4 0 C9.18 -0.96, 12.29 -0.68, 25.6 0 M25.6 0 C28.93 0.63, 31.29 2.58, 29.6 4 M25.6 0 C26.96 1.55, 28.32 0.17, 29.6 4 M29.6 4 C28.86 6.18, 29.37 9.21, 29.6 12 M29.6 4 C29.6 6.49, 29.4 9.67, 29.6 12 M29.6 12 C27.87 16.4, 27.24 15.6, 25.6 16 M29.6 12 C30.49 14.57, 28.74 17.12, 25.6 16 M25.6 16 C21.18 17.93, 17.35 16.68, 4 16 M25.6 16 C20.68 16.24, 16.86 16.71, 4 16 M4 16 C2.39 15.19, 0.44 12.95, 0 12 M4 16 C1.98 16.99, -1.52 13.47, 0 12 M0 12 C0.75 9.23, -0.28 7.6, 0 4 M0 12 C-0.4 9.28, -0.01 6.67, 0 4 M0 4 C1.59 -0.22, 2.88 0.09, 4 0 M0 4 C0.07 2.29, 2.94 -0.06, 4 0" stroke="#1e1e1e" stroke-width="2" fill="none"></path></g><g stroke-linecap="round" transform="translate(707.2001953125 241.1999969482422) rotate(0 14.79998779296875 8)"><path d="M4 0 C8.99 -0.86, 16.82 0.29, 25.6 0 M4 0 C10.29 0.2, 16.86 1.01, 25.6 0 M25.6 0 C26.72 1.55, 29.69 1.4, 29.6 4 M25.6 0 C29.22 1.61, 29.54 1.75, 29.6 4 M29.6 4 C28.9 6.9, 30.37 9.64, 29.6 12 M29.6 4 C29.3 7.3, 29.6 10.45, 29.6 12 M29.6 12 C28.98 15.23, 28.02 14.43, 25.6 16 M29.6 12 C31.81 14.81, 30.45 17.67, 25.6 16 M25.6 16 C18.3 16.33, 12.59 16.18, 4 16 M25.6 16 C20.63 16, 13.25 15.47, 4 16 M4 16 C2.15 14.03, 0.47 14.27, 0 12 M4 16 C1.55 17.92, -2.04 14.18, 0 12 M0 12 C-0.44 10.27, 0.53 8.78, 0 4 M0 12 C0.18 10.11, 0 8.57, 0 4 M0 4 C1.04 1.62, -0.29 -0.18, 4 0 M0 4 C-2.15 0.97, -0.64 1.43, 4 0" stroke="#1e1e1e" stroke-width="2" fill="none"></path></g><g stroke-linecap="round" transform="translate(627.4000549316406 215.59999084472656) rotate(0 14.79998779296875 8)"><path d="M4 0 C11.63 1.87, 16.68 -1.14, 25.6 0 M4 0 C10.91 -0.86, 19.64 -0.76, 25.6 0 M25.6 0 C26.85 1.84, 30.38 2.64, 29.6 4 M25.6 0 C26.93 1.82, 31.02 2.75, 29.6 4 M29.6 4 C29.02 6.21, 29.27 9.03, 29.6 12 M29.6 4 C29.54 6.78, 29.39 8.63, 29.6 12 M29.6 12 C29.82 14.99, 29.94 16.81, 25.6 16 M29.6 12 C29.46 16.83, 28.08 15.83, 25.6 16 M25.6 16 C17.04 16.77, 7.75 16.15, 4 16 M25.6 16 C19.19 15.16, 12.75 15.35, 4 16 M4 16 C0.12 17.53, -0.84 13.27, 0 12 M4 16 C0.58 14.43, -0.74 16, 0 12 M0 12 C-0.75 8.78, -0.48 5.63, 0 4 M0 12 C0.12 9.21, 0.14 6.44, 0 4 M0 4 C-1.59 -0.57, 0.07 -1.81, 4 0 M0 4 C-0.44 -0.18, -0.31 -0.16, 4 0" stroke="#1e1e1e" stroke-width="2" fill="none"></path></g><g stroke-linecap="round" transform="translate(667.8000183105469 212.40000915527344) rotate(0 14.79998779296875 8)"><path d="M4 0 C9.27 -1.3, 18.8 -1.16, 25.6 0 M4 0 C10.11 -0.63, 14.69 1.12, 25.6 0 M25.6 0 C29.05 1.31, 28.43 2.92, 29.6 4 M25.6 0 C29.68 1.41, 29.61 3.63, 29.6 4 M29.6 4 C29.12 7.12, 29.61 9.61, 29.6 12 M29.6 4 C29.4 5.92, 29.63 8.56, 29.6 12 M29.6 12 C31.27 15.47, 28.15 17.88, 25.6 16 M29.6 12 C29.42 14.5, 30.1 14.51, 25.6 16 M25.6 16 C19.04 16.38, 14.92 14.2, 4 16 M25.6 16 C17.78 15.11, 11.1 16.57, 4 16 M4 16 C0.49 14.6, -0.65 13.3, 0 12 M4 16 C0.6 17.34, 2.02 16.86, 0 12 M0 12 C-0.34 10.18, 0.58 8.52, 0 4 M0 12 C0.11 9.57, -0.34 6.21, 0 4 M0 4 C-1.26 -0.48, 0.95 -1.31, 4 0 M0 4 C-1.64 1.17, 0.39 -1.53, 4 0" stroke="#1e1e1e" stroke-width="2" fill="none"></path></g><g stroke-linecap="round" transform="translate(707.0000915527344 213.99998474121094) rotate(0 14.79998779296875 8)"><path d="M4 0 C13.59 -0.84, 20.36 -1.3, 25.6 0 M4 0 C7.75 1.1, 13.3 0.83, 25.6 0 M25.6 0 C27.1 1.59, 30.83 2.56, 29.6 4 M25.6 0 C28.27 2.3, 31.01 -0.56, 29.6 4 M29.6 4 C29.64 6.04, 29.41 8.34, 29.6 12 M29.6 4 C29.61 7.07, 29.9 10.17, 29.6 12 M29.6 12 C29.48 16.55, 28.11 15.85, 25.6 16 M29.6 12 C31.43 13.18, 26.81 15.58, 25.6 16 M25.6 16 C17.69 14.14, 11.12 15.19, 4 16 M25.6 16 C20.44 16.62, 16.07 15.15, 4 16 M4 16 C0.68 14.64, -0.64 15.83, 0 12 M4 16 C3.36 18.19, -2.12 12.72, 0 12 M0 12 C0.56 9.56, 0.34 7.64, 0 4 M0 12 C-0.34 8.97, -0.28 6.33, 0 4 M0 4 C-0.38 0.02, -0.1 -0.14, 4 0 M0 4 C-0.95 -0.2, 3.13 -1.98, 4 0" stroke="#1e1e1e" stroke-width="2" fill="none"></path></g><g stroke-linecap="round" transform="translate(627.3999328613281 187.5999755859375) rotate(0 14.79998779296875 8)"><path d="M4 0 C9.45 1.11, 12.18 1.39, 25.6 0 M4 0 C12.81 0.61, 18.8 -0.24, 25.6 0 M25.6 0 C27.23 0.56, 29.8 0.9, 29.6 4 M25.6 0 C27.83 -0.24, 31.34 0.25, 29.6 4 M29.6 4 C30.28 6.06, 29.56 8.24, 29.6 12 M29.6 4 C29.34 6.08, 29.52 8.85, 29.6 12 M29.6 12 C28.15 14.95, 27.81 14.11, 25.6 16 M29.6 12 C30.1 13.7, 26.22 14, 25.6 16 M25.6 16 C19.78 14.77, 14.98 14.8, 4 16 M25.6 16 C20.77 15.27, 13.18 16.04, 4 16 M4 16 C0.32 15.61, 1.29 14.28, 0 12 M4 16 C2.21 16.58, 0.73 15.41, 0 12 M0 12 C-0.44 8.33, -0.09 5.58, 0 4 M0 12 C-0.26 10.48, -0.34 8.52, 0 4 M0 4 C1.56 3.22, 1.91 1.31, 4 0 M0 4 C-2.18 -0.42, 2.64 2, 4 0" stroke="#1e1e1e" stroke-width="2" fill="none"></path></g><g stroke-linecap="round" transform="translate(668.5998229980469 185.99998474121094) rotate(0 14.79998779296875 8)"><path d="M4 0 C11.3 1.44, 22.17 1.09, 25.6 0 M4 0 C9.66 -0.37, 16.45 0.15, 25.6 0 M25.6 0 C28.46 -0.43, 29.22 1.13, 29.6 4 M25.6 0 C30.01 -1.08, 27.71 1.58, 29.6 4 M29.6 4 C29.62 7.28, 29.6 9, 29.6 12 M29.6 4 C29.48 7.22, 29.26 10.13, 29.6 12 M29.6 12 C29.15 12.77, 28.7 15.16, 25.6 16 M29.6 12 C27.55 12.66, 26.67 14.6, 25.6 16 M25.6 16 C16.81 14.48, 8.68 17.01, 4 16 M25.6 16 C16.37 15.65, 8.33 15.6, 4 16 M4 16 C2.62 15.61, 0.76 15.17, 0 12 M4 16 C2.06 16.74, 1.57 12.84, 0 12 M0 12 C-0.1 9.84, -0.52 8.67, 0 4 M0 12 C-0.29 10.11, 0.36 8.24, 0 4 M0 4 C0.57 2.64, -0.56 -1.53, 4 0 M0 4 C1.3 3.33, -0.58 -1.15, 4 0" stroke="#1e1e1e" stroke-width="2" fill="none"></path></g><g stroke-linecap="round" transform="translate(706.9999694824219 185.99996948242188) rotate(0 14.79998779296875 8)"><path d="M4 0 C13.13 1.06, 19.79 1.83, 25.6 0 M4 0 C11.29 0.33, 19.71 -0.17, 25.6 0 M25.6 0 C27.89 -0.21, 31.12 0.39, 29.6 4 M25.6 0 C26.38 0.25, 29.97 3.26, 29.6 4 M29.6 4 C29.53 6.66, 30.23 8.93, 29.6 12 M29.6 4 C29.3 5.95, 29.5 7.41, 29.6 12 M29.6 12 C30.03 13.82, 26.48 14.26, 25.6 16 M29.6 12 C28 13.27, 30.03 15.03, 25.6 16 M25.6 16 C19.99 17.01, 17.42 17.76, 4 16 M25.6 16 C20.6 15.77, 17.27 15.77, 4 16 M4 16 C2.09 16.51, 0.63 15.31, 0 12 M4 16 C2.9 14.17, -2.19 13.22, 0 12 M0 12 C-0.56 10.27, -0.31 8.12, 0 4 M0 12 C0.38 9.35, 0.18 6.21, 0 4 M0 4 C-1.89 -0.19, 2.47 1.74, 4 0 M0 4 C-1.92 0.18, 3.16 0.25, 4 0" stroke="#1e1e1e" stroke-width="2" fill="none"></path></g><g transform="translate(179.5999755859375 198.8000030517578) rotate(0 17.20001220703125 0)" stroke="none"><path fill="#1e1e1e" d="M 0,-2.05 Q 0,-2.05 2.99,-1.95 5.98,-1.85 10.24,-1.78 14.50,-1.71 18.15,-1.65 21.80,-1.60 24.27,-1.56 26.74,-1.52 28.48,-1.57 30.22,-1.62 32.11,-1.68 33.99,-1.73 34.27,-1.68 34.54,-1.64 34.79,-1.50 35.04,-1.37 35.23,-1.17 35.42,-0.97 35.54,-0.71 35.66,-0.46 35.69,-0.18 35.72,0.09 35.66,0.36 35.60,0.64 35.46,0.88 35.31,1.12 35.10,1.30 34.88,1.48 34.62,1.58 34.36,1.69 34.08,1.70 33.80,1.72 33.53,1.64 33.26,1.57 33.03,1.41 32.80,1.25 32.63,1.03 32.46,0.81 32.37,0.54 32.28,0.27 32.28,-0.00 32.28,-0.28 32.37,-0.54 32.46,-0.81 32.63,-1.03 32.80,-1.25 33.03,-1.41 33.26,-1.57 33.53,-1.64 33.80,-1.72 34.08,-1.70 34.36,-1.69 34.62,-1.58 34.88,-1.48 35.10,-1.30 35.31,-1.12 35.46,-0.88 35.60,-0.64 35.66,-0.36 35.72,-0.09 35.69,0.18 35.66,0.46 35.54,0.71 35.42,0.97 35.23,1.17 35.04,1.37 34.79,1.50 34.54,1.64 34.27,1.68 33.99,1.73 33.99,1.73 33.99,1.73 32.11,1.68 30.22,1.62 28.48,1.57 26.74,1.52 24.27,1.56 21.80,1.60 18.15,1.65 14.50,1.71 10.24,1.78 5.98,1.85 2.99,1.95 0,2.05 -0.24,2.02 -0.49,1.99 -0.72,1.90 -0.95,1.82 -1.15,1.67 -1.36,1.53 -1.52,1.35 -1.69,1.16 -1.80,0.94 -1.92,0.72 -1.98,0.48 -2.04,0.24 -2.04,-0.00 -2.04,-0.24 -1.98,-0.48 -1.92,-0.72 -1.80,-0.94 -1.69,-1.16 -1.52,-1.35 -1.36,-1.53 -1.15,-1.67 -0.95,-1.82 -0.72,-1.90 -0.49,-1.99 -0.24,-2.02 0.00,-2.05 0.00,-2.05 L 0,-2.05 Z"></path></g><g transform="translate(179.5999755859375 227.59999084472656) rotate(0 14.800018310546875 0)" stroke="none"><path fill="#1e1e1e" d="M 0,-2.36 Q 0,-2.36 3.22,-2.22 6.44,-2.09 8.95,-1.98 11.47,-1.88 13.23,-1.89 14.99,-1.89 16.43,-1.95 17.87,-2.00 19.76,-2.14 21.65,-2.29 23.63,-2.39 25.61,-2.49 27.36,-2.53 29.12,-2.56 29.53,-2.49 29.94,-2.43 30.31,-2.23 30.67,-2.04 30.96,-1.74 31.25,-1.43 31.42,-1.06 31.59,-0.68 31.64,-0.27 31.68,0.13 31.59,0.54 31.50,0.94 31.29,1.30 31.08,1.66 30.76,1.92 30.44,2.19 30.06,2.35 29.67,2.50 29.26,2.52 28.85,2.54 28.45,2.43 28.05,2.32 27.70,2.09 27.36,1.86 27.11,1.53 26.86,1.20 26.72,0.80 26.59,0.41 26.59,-0.00 26.59,-0.41 26.72,-0.80 26.86,-1.20 27.11,-1.53 27.36,-1.86 27.70,-2.09 28.05,-2.32 28.45,-2.43 28.85,-2.54 29.26,-2.52 29.67,-2.50 30.06,-2.35 30.45,-2.19 30.76,-1.92 31.08,-1.65 31.29,-1.30 31.51,-0.94 31.59,-0.54 31.68,-0.13 31.64,0.27 31.59,0.68 31.42,1.06 31.24,1.43 30.96,1.74 30.67,2.04 30.31,2.23 29.94,2.43 29.53,2.49 29.12,2.56 29.12,2.56 29.12,2.56 27.36,2.53 25.61,2.49 23.63,2.39 21.65,2.29 19.76,2.14 17.87,2.00 16.43,1.95 14.99,1.89 13.23,1.89 11.47,1.88 8.95,1.98 6.44,2.09 3.22,2.22 0,2.36 -0.28,2.33 -0.56,2.29 -0.83,2.19 -1.09,2.09 -1.33,1.93 -1.56,1.77 -1.75,1.55 -1.94,1.34 -2.07,1.09 -2.21,0.83 -2.27,0.56 -2.34,0.28 -2.34,-0.00 -2.34,-0.28 -2.27,-0.56 -2.21,-0.83 -2.07,-1.09 -1.94,-1.34 -1.75,-1.55 -1.56,-1.77 -1.33,-1.93 -1.09,-2.09 -0.83,-2.19 -0.56,-2.29 -0.28,-2.33 0.00,-2.36 0.00,-2.36 L 0,-2.36 Z"></path></g><g transform="translate(180.4000244140625 254.8000030517578) rotate(0 24 0.399993896484375)" stroke="none"><path fill="#1e1e1e" d="M 0.25,-1.76 Q 0.25,-1.76 1.86,-1.57 3.48,-1.38 5.45,-1.23 7.43,-1.09 9.89,-0.99 12.35,-0.89 15.46,-0.83 18.58,-0.77 22.21,-0.73 25.83,-0.69 28.98,-0.66 32.14,-0.64 34.80,-0.84 37.46,-1.05 39.32,-1.20 41.19,-1.35 42.68,-1.48 44.17,-1.61 45.88,-1.69 47.60,-1.76 47.88,-1.72 48.17,-1.68 48.42,-1.55 48.68,-1.42 48.88,-1.21 49.08,-1.00 49.20,-0.75 49.33,-0.49 49.36,-0.20 49.39,0.07 49.34,0.35 49.28,0.64 49.13,0.88 48.99,1.13 48.77,1.32 48.56,1.51 48.29,1.62 48.02,1.73 47.74,1.75 47.45,1.77 47.17,1.69 46.90,1.62 46.66,1.46 46.42,1.30 46.24,1.08 46.06,0.85 45.97,0.58 45.87,0.31 45.87,0.02 45.87,-0.26 45.96,-0.53 46.04,-0.80 46.22,-1.03 46.39,-1.26 46.62,-1.43 46.86,-1.59 47.13,-1.67 47.41,-1.75 47.69,-1.74 47.98,-1.73 48.25,-1.62 48.52,-1.52 48.74,-1.34 48.96,-1.16 49.11,-0.91 49.26,-0.67 49.33,-0.39 49.39,-0.11 49.36,0.17 49.34,0.45 49.22,0.72 49.10,0.98 48.91,1.19 48.71,1.40 48.46,1.54 48.21,1.67 47.93,1.72 47.64,1.77 47.64,1.77 47.64,1.77 45.95,1.75 44.26,1.74 42.80,1.69 41.35,1.63 39.52,1.68 37.69,1.73 34.91,1.98 32.13,2.23 28.98,2.25 25.83,2.27 22.20,2.29 18.56,2.31 15.43,2.34 12.29,2.36 9.78,2.38 7.26,2.40 5.11,2.35 2.95,2.30 1.35,2.03 -0.25,1.76 -0.46,1.71 -0.66,1.65 -0.85,1.55 -1.04,1.44 -1.20,1.30 -1.36,1.15 -1.47,0.97 -1.59,0.79 -1.66,0.59 -1.74,0.39 -1.76,0.17 -1.78,-0.03 -1.75,-0.25 -1.72,-0.46 -1.64,-0.66 -1.56,-0.86 -1.43,-1.03 -1.31,-1.21 -1.14,-1.35 -0.98,-1.48 -0.78,-1.58 -0.59,-1.68 -0.38,-1.72 -0.17,-1.77 0.03,-1.77 0.25,-1.76 0.25,-1.76 L 0.25,-1.76 Z"></path></g><g transform="translate(258.79998779296875 201.1999969482422) rotate(0 14.800018310546875 0)" stroke="none"><path fill="#1e1e1e" d="M 0,-2.12 Q 0,-2.12 1.37,-2.16 2.75,-2.20 4.03,-2.24 5.31,-2.29 7.00,-2.26 8.69,-2.24 11.02,-2.11 13.35,-1.99 15.95,-1.90 18.55,-1.81 20.81,-1.74 23.06,-1.67 24.48,-1.75 25.90,-1.83 27.41,-1.90 28.93,-1.97 29.24,-1.92 29.56,-1.86 29.84,-1.71 30.12,-1.56 30.34,-1.33 30.56,-1.10 30.69,-0.81 30.83,-0.52 30.86,-0.21 30.90,0.10 30.83,0.41 30.76,0.72 30.59,1.00 30.43,1.27 30.19,1.48 29.94,1.68 29.65,1.80 29.35,1.92 29.03,1.94 28.71,1.96 28.41,1.87 28.10,1.78 27.84,1.61 27.57,1.43 27.38,1.17 27.19,0.92 27.08,0.62 26.98,0.31 26.98,-0.00 26.98,-0.31 27.08,-0.62 27.19,-0.92 27.38,-1.17 27.57,-1.43 27.84,-1.61 28.10,-1.78 28.41,-1.87 28.71,-1.96 29.03,-1.94 29.35,-1.92 29.65,-1.80 29.94,-1.68 30.19,-1.48 30.43,-1.27 30.59,-1.00 30.76,-0.72 30.83,-0.41 30.90,-0.10 30.86,0.21 30.83,0.52 30.69,0.81 30.56,1.10 30.34,1.33 30.12,1.56 29.84,1.71 29.56,1.86 29.24,1.92 28.93,1.97 28.93,1.97 28.93,1.97 27.41,1.90 25.90,1.83 24.48,1.75 23.06,1.67 20.81,1.74 18.55,1.81 15.95,1.90 13.35,1.99 11.02,2.11 8.69,2.24 7.00,2.26 5.31,2.29 4.03,2.24 2.75,2.20 1.37,2.16 0,2.12 -0.25,2.09 -0.50,2.06 -0.74,1.97 -0.98,1.88 -1.19,1.73 -1.41,1.59 -1.58,1.39 -1.75,1.20 -1.86,0.98 -1.98,0.75 -2.04,0.50 -2.11,0.25 -2.11,-0.00 -2.11,-0.25 -2.04,-0.50 -1.98,-0.75 -1.86,-0.98 -1.74,-1.20 -1.57,-1.39 -1.40,-1.59 -1.19,-1.73 -0.98,-1.88 -0.74,-1.97 -0.50,-2.06 -0.25,-2.09 0.00,-2.12 0.00,-2.12 L 0,-2.12 Z"></path></g><g transform="translate(334.79998779296875 201.1999969482422) rotate(0 16.800018310546875 0.8000030517578125)" stroke="none"><path fill="#1e1e1e" d="M 0,-2.27 Q 0,-2.27 4.14,-2.15 8.28,-2.02 13.48,-1.93 18.69,-1.83 21.60,-1.76 24.50,-1.69 25.97,-1.76 27.43,-1.83 29.27,-1.69 31.10,-1.55 32.46,-1.10 33.83,-0.64 34.16,-0.50 34.49,-0.35 34.75,-0.10 35.02,0.13 35.19,0.45 35.37,0.76 35.43,1.12 35.49,1.47 35.44,1.83 35.39,2.19 35.22,2.51 35.06,2.83 34.80,3.08 34.54,3.34 34.22,3.49 33.89,3.65 33.53,3.69 33.17,3.74 32.82,3.67 32.46,3.59 32.15,3.41 31.84,3.23 31.60,2.96 31.36,2.69 31.23,2.35 31.09,2.02 31.06,1.66 31.04,1.30 31.13,0.95 31.22,0.60 31.42,0.30 31.62,0.00 31.90,-0.22 32.19,-0.44 32.53,-0.56 32.87,-0.68 33.23,-0.69 33.59,-0.69 33.93,-0.58 34.28,-0.47 34.57,-0.26 34.86,-0.04 35.07,0.24 35.27,0.54 35.37,0.89 35.48,1.23 35.46,1.59 35.45,1.96 35.32,2.29 35.19,2.63 34.96,2.91 34.73,3.19 34.42,3.38 34.12,3.57 33.77,3.65 33.41,3.74 33.05,3.70 32.69,3.67 32.70,3.67 32.70,3.67 31.12,3.07 29.54,2.47 28.48,2.15 27.43,1.83 25.97,1.76 24.50,1.69 21.60,1.76 18.69,1.83 13.48,1.93 8.28,2.02 4.14,2.15 0,2.27 -0.27,2.24 -0.54,2.21 -0.80,2.11 -1.05,2.01 -1.28,1.86 -1.51,1.70 -1.69,1.49 -1.87,1.29 -2.00,1.05 -2.13,0.80 -2.19,0.54 -2.26,0.27 -2.26,-0.00 -2.26,-0.27 -2.19,-0.54 -2.13,-0.80 -2.00,-1.05 -1.87,-1.29 -1.69,-1.50 -1.51,-1.70 -1.28,-1.86 -1.05,-2.01 -0.80,-2.11 -0.54,-2.21 -0.27,-2.24 0.00,-2.27 0.00,-2.27 L 0,-2.27 Z"></path></g><g transform="translate(409.20001220703125 199.59999084472656) rotate(0 16.399993896484375 -0.399993896484375)" stroke="none"><path fill="#1e1e1e" d="M -0.14,-1.93 Q -0.14,-1.93 2.84,-2.07 5.84,-2.22 9.22,-2.26 12.61,-2.30 15.65,-2.29 18.69,-2.29 21.14,-2.27 23.58,-2.26 25.54,-2.28 27.50,-2.30 29.67,-2.41 31.84,-2.51 32.11,-2.47 32.38,-2.42 32.63,-2.29 32.88,-2.16 33.07,-1.96 33.26,-1.76 33.38,-1.51 33.50,-1.26 33.53,-0.98 33.56,-0.70 33.50,-0.43 33.44,-0.16 33.29,0.07 33.15,0.31 32.94,0.49 32.73,0.67 32.47,0.77 32.21,0.88 31.93,0.89 31.66,0.91 31.39,0.83 31.12,0.76 30.89,0.60 30.66,0.45 30.49,0.23 30.32,0.01 30.23,-0.25 30.14,-0.51 30.14,-0.79 30.14,-1.07 30.23,-1.33 30.32,-1.60 30.49,-1.82 30.65,-2.04 30.88,-2.20 31.11,-2.35 31.38,-2.43 31.65,-2.50 31.93,-2.49 32.21,-2.47 32.46,-2.37 32.72,-2.27 32.94,-2.09 33.15,-1.91 33.29,-1.67 33.44,-1.43 33.50,-1.16 33.56,-0.89 33.53,-0.61 33.50,-0.34 33.38,-0.08 33.26,0.16 33.07,0.36 32.88,0.56 32.64,0.69 32.39,0.83 32.12,0.87 31.84,0.92 31.84,0.92 31.84,0.92 29.68,0.82 27.51,0.73 25.56,0.72 23.60,0.71 21.17,0.76 18.74,0.81 15.72,0.90 12.70,0.99 9.41,1.14 6.11,1.30 3.13,1.61 0.14,1.93 -0.08,1.92 -0.31,1.91 -0.54,1.84 -0.76,1.77 -0.96,1.66 -1.16,1.54 -1.33,1.38 -1.50,1.21 -1.62,1.02 -1.75,0.82 -1.82,0.60 -1.90,0.38 -1.91,0.14 -1.93,-0.08 -1.89,-0.31 -1.85,-0.54 -1.76,-0.76 -1.67,-0.97 -1.53,-1.16 -1.39,-1.34 -1.21,-1.49 -1.02,-1.64 -0.81,-1.74 -0.60,-1.84 -0.37,-1.88 -0.14,-1.93 -0.14,-1.93 L -0.14,-1.93 Z"></path></g><g transform="translate(490 198.8000030517578) rotate(0 11.20001220703125 0.399993896484375)" stroke="none"><path fill="#1e1e1e" d="M 0,-2.28 Q 0,-2.28 1.60,-2.27 3.21,-2.26 5.28,-2.15 7.34,-2.05 9.14,-2.03 10.94,-2.01 12.62,-2.01 14.31,-2.02 15.71,-2.07 17.12,-2.11 19.65,-1.78 22.18,-1.45 22.53,-1.35 22.87,-1.25 23.16,-1.04 23.45,-0.84 23.67,-0.55 23.88,-0.26 23.99,0.07 24.09,0.41 24.09,0.77 24.08,1.13 23.96,1.46 23.84,1.80 23.62,2.08 23.40,2.36 23.10,2.56 22.80,2.76 22.45,2.85 22.11,2.93 21.75,2.91 21.40,2.88 21.07,2.75 20.74,2.61 20.47,2.37 20.20,2.14 20.02,1.83 19.84,1.52 19.77,1.17 19.70,0.82 19.74,0.46 19.79,0.11 19.94,-0.21 20.10,-0.53 20.35,-0.78 20.60,-1.04 20.92,-1.20 21.24,-1.36 21.59,-1.41 21.94,-1.47 22.30,-1.40 22.65,-1.34 22.96,-1.17 23.27,-0.99 23.52,-0.73 23.76,-0.47 23.90,-0.14 24.05,0.18 24.08,0.53 24.11,0.89 24.03,1.24 23.95,1.59 23.76,1.89 23.57,2.19 23.29,2.42 23.01,2.65 22.68,2.77 22.35,2.90 21.99,2.91 21.63,2.93 21.63,2.93 21.63,2.93 19.37,2.52 17.11,2.11 15.71,2.07 14.31,2.02 12.62,2.01 10.94,2.01 9.14,2.03 7.34,2.05 5.28,2.15 3.21,2.26 1.60,2.27 0,2.28 -0.27,2.25 -0.54,2.22 -0.80,2.12 -1.06,2.02 -1.28,1.86 -1.51,1.71 -1.69,1.50 -1.88,1.29 -2.01,1.05 -2.13,0.81 -2.20,0.54 -2.27,0.27 -2.27,-0.00 -2.27,-0.27 -2.20,-0.54 -2.13,-0.81 -2.00,-1.05 -1.88,-1.29 -1.69,-1.50 -1.51,-1.71 -1.28,-1.86 -1.06,-2.02 -0.80,-2.12 -0.54,-2.22 -0.27,-2.25 0.00,-2.28 0.00,-2.28 L 0,-2.28 Z"></path></g><g transform="translate(568.3999633789062 196.40000915527344) rotate(0 13.20001220703125 0)" stroke="none"><path fill="#1e1e1e" d="M 0,-2.31 Q 0,-2.31 2.53,-2.18 5.06,-2.05 7.28,-1.95 9.51,-1.85 11.14,-1.88 12.78,-1.92 13.93,-1.99 15.09,-2.07 16.80,-2.20 18.52,-2.34 20.10,-2.33 21.67,-2.32 23.61,-2.38 25.54,-2.43 25.93,-2.37 26.32,-2.30 26.67,-2.12 27.02,-1.93 27.29,-1.65 27.56,-1.36 27.72,-1.00 27.89,-0.65 27.93,-0.25 27.97,0.13 27.89,0.51 27.80,0.90 27.60,1.23 27.40,1.57 27.10,1.83 26.80,2.08 26.43,2.23 26.06,2.37 25.67,2.40 25.28,2.42 24.90,2.31 24.52,2.21 24.19,1.98 23.87,1.76 23.63,1.45 23.39,1.14 23.26,0.76 23.14,0.39 23.14,-0.00 23.14,-0.39 23.26,-0.76 23.39,-1.14 23.63,-1.45 23.87,-1.76 24.19,-1.99 24.52,-2.21 24.90,-2.31 25.28,-2.42 25.67,-2.40 26.07,-2.37 26.43,-2.23 26.80,-2.08 27.10,-1.83 27.40,-1.57 27.60,-1.23 27.80,-0.90 27.89,-0.51 27.97,-0.13 27.93,0.26 27.89,0.65 27.72,1.01 27.56,1.36 27.29,1.65 27.02,1.93 26.67,2.12 26.32,2.30 25.93,2.37 25.54,2.43 25.54,2.43 25.54,2.43 23.61,2.38 21.67,2.32 20.10,2.33 18.52,2.34 16.80,2.20 15.09,2.07 13.93,1.99 12.78,1.92 11.14,1.88 9.51,1.85 7.28,1.95 5.06,2.05 2.53,2.18 0,2.31 -0.27,2.28 -0.55,2.25 -0.81,2.15 -1.07,2.05 -1.30,1.89 -1.53,1.73 -1.72,1.52 -1.90,1.31 -2.03,1.06 -2.16,0.82 -2.23,0.55 -2.30,0.27 -2.30,-0.00 -2.30,-0.27 -2.23,-0.55 -2.16,-0.82 -2.03,-1.06 -1.90,-1.31 -1.72,-1.52 -1.53,-1.73 -1.30,-1.89 -1.07,-2.05 -0.81,-2.15 -0.55,-2.25 -0.27,-2.28 0.00,-2.31 0.00,-2.31 L 0,-2.31 Z"></path></g><g transform="translate(570.0000610351562 223.59999084472656) rotate(0 8.39996337890625 0.4000091552734375)" stroke="none"><path fill="#1e1e1e" d="M 0.32,-2.24 Q 0.32,-2.24 1.92,-2.00 3.53,-1.76 5.27,-1.62 7.00,-1.49 8.67,-1.43 10.33,-1.38 13.28,-1.41 16.23,-1.43 16.59,-1.37 16.94,-1.31 17.26,-1.14 17.58,-0.96 17.82,-0.70 18.07,-0.44 18.22,-0.11 18.37,0.21 18.40,0.57 18.44,0.93 18.36,1.28 18.28,1.63 18.09,1.94 17.90,2.25 17.62,2.48 17.35,2.71 17.01,2.84 16.67,2.97 16.31,2.99 15.95,3.01 15.61,2.91 15.26,2.81 14.96,2.60 14.66,2.40 14.45,2.11 14.23,1.82 14.12,1.48 14.01,1.13 14.01,0.77 14.01,0.41 14.13,0.07 14.25,-0.26 14.47,-0.55 14.69,-0.83 14.99,-1.03 15.29,-1.23 15.64,-1.33 15.99,-1.42 16.35,-1.40 16.71,-1.37 17.04,-1.24 17.38,-1.10 17.65,-0.87 17.92,-0.63 18.11,-0.32 18.29,-0.01 18.37,0.33 18.44,0.69 18.40,1.05 18.36,1.41 18.20,1.73 18.05,2.06 17.80,2.32 17.55,2.58 17.23,2.74 16.91,2.91 16.55,2.97 16.19,3.02 16.19,3.02 16.19,3.02 13.21,2.94 10.23,2.86 8.50,2.83 6.77,2.80 4.83,2.74 2.90,2.68 1.29,2.46 -0.32,2.24 -0.58,2.17 -0.85,2.10 -1.08,1.97 -1.32,1.84 -1.53,1.65 -1.73,1.47 -1.88,1.24 -2.03,1.01 -2.12,0.75 -2.21,0.49 -2.24,0.22 -2.27,-0.04 -2.23,-0.31 -2.19,-0.59 -2.09,-0.84 -1.98,-1.09 -1.82,-1.32 -1.66,-1.54 -1.45,-1.71 -1.25,-1.89 -1.00,-2.01 -0.76,-2.14 -0.49,-2.20 -0.22,-2.26 0.04,-2.25 0.32,-2.24 0.32,-2.24 L 0.32,-2.24 Z"></path></g><g transform="translate(565.2000122070312 254.8000030517578) rotate(0 12.4000244140625 -1.600006103515625)" stroke="none"><path fill="#1e1e1e" d="M -0.68,-2.39 Q -0.68,-2.39 0.93,-2.81 2.56,-3.23 4.09,-3.47 5.62,-3.71 7.32,-3.96 9.02,-4.22 10.54,-4.38 12.06,-4.54 13.70,-5.03 15.34,-5.52 17.53,-5.67 19.72,-5.82 22.07,-5.90 24.43,-5.98 24.88,-5.90 25.32,-5.83 25.72,-5.62 26.12,-5.41 26.43,-5.09 26.74,-4.76 26.93,-4.35 27.12,-3.95 27.17,-3.50 27.22,-3.05 27.12,-2.61 27.03,-2.17 26.80,-1.79 26.57,-1.40 26.22,-1.11 25.88,-0.82 25.47,-0.65 25.05,-0.48 24.60,-0.45 24.15,-0.43 23.72,-0.55 23.28,-0.67 22.91,-0.92 22.54,-1.17 22.26,-1.53 21.99,-1.88 21.84,-2.31 21.70,-2.74 21.70,-3.19 21.70,-3.64 21.84,-4.06 21.98,-4.49 22.25,-4.85 22.52,-5.21 22.90,-5.46 23.27,-5.71 23.70,-5.84 24.13,-5.96 24.58,-5.93 25.03,-5.91 25.45,-5.75 25.87,-5.58 26.21,-5.29 26.56,-5.00 26.79,-4.62 27.02,-4.23 27.12,-3.79 27.22,-3.35 27.17,-2.90 27.12,-2.46 26.94,-2.05 26.75,-1.64 26.44,-1.31 26.13,-0.98 25.73,-0.77 25.34,-0.56 24.89,-0.49 24.45,-0.41 24.45,-0.41 24.45,-0.41 22.13,-0.46 19.81,-0.51 18.64,-0.50 17.47,-0.49 16.26,-0.45 15.05,-0.41 13.78,-0.14 12.51,0.13 11.18,0.24 9.84,0.34 8.07,0.72 6.31,1.09 5.09,1.24 3.87,1.39 2.28,1.89 0.68,2.39 0.38,2.43 0.09,2.48 -0.20,2.45 -0.50,2.43 -0.79,2.33 -1.07,2.24 -1.32,2.08 -1.57,1.92 -1.78,1.70 -1.99,1.48 -2.14,1.22 -2.29,0.96 -2.37,0.67 -2.45,0.38 -2.46,0.09 -2.47,-0.20 -2.41,-0.50 -2.35,-0.79 -2.22,-1.06 -2.09,-1.33 -1.90,-1.56 -1.71,-1.79 -1.47,-1.97 -1.23,-2.15 -0.95,-2.27 -0.68,-2.39 -0.68,-2.39 L -0.68,-2.39 Z"></path></g><g transform="translate(489.20001220703125 221.99998474121094) rotate(0 22.399993896484375 2.8000030517578125)" stroke="none"><path fill="#1e1e1e" d="M 0,-1.91 Q 0,-1.91 3.22,-1.83 6.44,-1.75 11.07,-1.45 15.70,-1.16 20.97,-0.09 26.25,0.97 30.44,1.43 34.64,1.88 37.46,2.56 40.28,3.25 42.26,3.53 44.24,3.82 44.48,3.91 44.73,4.00 44.94,4.17 45.14,4.34 45.28,4.56 45.43,4.78 45.49,5.04 45.55,5.30 45.53,5.56 45.51,5.83 45.40,6.07 45.29,6.31 45.12,6.51 44.94,6.70 44.71,6.83 44.48,6.96 44.22,7.01 43.96,7.06 43.70,7.02 43.43,6.98 43.20,6.87 42.96,6.75 42.77,6.56 42.59,6.37 42.47,6.13 42.36,5.90 42.32,5.63 42.29,5.37 42.34,5.11 42.39,4.85 42.52,4.62 42.65,4.39 42.85,4.22 43.05,4.04 43.29,3.94 43.53,3.83 43.80,3.81 44.06,3.79 44.32,3.86 44.57,3.92 44.80,4.07 45.02,4.21 45.18,4.42 45.35,4.63 45.44,4.87 45.53,5.12 45.53,5.39 45.54,5.65 45.46,5.90 45.38,6.16 45.23,6.37 45.07,6.58 44.86,6.74 44.64,6.89 44.39,6.97 44.13,7.04 43.87,7.04 43.60,7.03 43.60,7.03 43.61,7.03 41.62,6.53 39.62,6.04 36.98,5.44 34.34,4.83 30.00,4.42 25.65,4.01 20.59,3.05 15.53,2.08 10.98,1.91 6.43,1.75 3.21,1.83 0,1.91 -0.22,1.88 -0.45,1.85 -0.67,1.77 -0.88,1.69 -1.07,1.56 -1.26,1.43 -1.41,1.25 -1.57,1.08 -1.67,0.88 -1.78,0.67 -1.84,0.45 -1.89,0.23 -1.89,-0.00 -1.89,-0.23 -1.84,-0.45 -1.78,-0.67 -1.67,-0.88 -1.57,-1.08 -1.41,-1.25 -1.26,-1.43 -1.07,-1.56 -0.88,-1.69 -0.67,-1.77 -0.45,-1.85 -0.22,-1.88 0.00,-1.91 0.00,-1.91 L 0,-1.91 Z"></path></g><g transform="translate(491.5999755859375 249.99998474121094) rotate(0 19.20001220703125 0.4000091552734375)" stroke="none"><path fill="#1e1e1e" d="M 0,-1.84 Q 0,-1.84 1.84,-1.83 3.68,-1.83 6.30,-1.76 8.92,-1.69 12.79,-1.64 16.67,-1.59 20.61,-1.55 24.56,-1.51 27.90,-1.25 31.24,-0.99 34.20,-0.97 37.16,-0.95 37.43,-0.89 37.70,-0.83 37.93,-0.69 38.17,-0.55 38.35,-0.35 38.53,-0.14 38.63,0.10 38.73,0.36 38.75,0.63 38.77,0.90 38.70,1.17 38.62,1.43 38.47,1.66 38.32,1.89 38.10,2.06 37.89,2.22 37.63,2.31 37.37,2.40 37.10,2.40 36.82,2.41 36.56,2.32 36.30,2.23 36.08,2.07 35.86,1.91 35.71,1.68 35.55,1.46 35.48,1.19 35.40,0.93 35.42,0.66 35.43,0.38 35.53,0.13 35.63,-0.12 35.80,-0.33 35.98,-0.54 36.21,-0.68 36.45,-0.82 36.71,-0.88 36.98,-0.95 37.25,-0.92 37.52,-0.89 37.77,-0.78 38.02,-0.66 38.22,-0.48 38.42,-0.29 38.55,-0.05 38.68,0.18 38.73,0.45 38.78,0.72 38.73,0.99 38.69,1.26 38.56,1.51 38.44,1.75 38.24,1.94 38.04,2.13 37.80,2.24 37.55,2.36 37.28,2.39 37.00,2.42 37.00,2.42 37.00,2.42 34.02,2.17 31.03,1.91 27.80,1.71 24.56,1.51 20.61,1.55 16.67,1.59 12.79,1.64 8.92,1.69 6.30,1.76 3.68,1.83 1.84,1.83 0,1.84 -0.22,1.81 -0.44,1.78 -0.64,1.70 -0.85,1.63 -1.03,1.50 -1.22,1.37 -1.36,1.21 -1.51,1.04 -1.61,0.84 -1.72,0.65 -1.77,0.43 -1.82,0.22 -1.82,-0.00 -1.82,-0.22 -1.77,-0.43 -1.72,-0.65 -1.61,-0.84 -1.51,-1.04 -1.36,-1.21 -1.22,-1.37 -1.03,-1.50 -0.85,-1.63 -0.64,-1.70 -0.44,-1.78 -0.22,-1.81 0.00,-1.84 0.00,-1.84 L 0,-1.84 Z"></path></g><g transform="translate(406.79998779296875 222.8000030517578) rotate(0 12.399993896484375 0)" stroke="none"><path fill="#1e1e1e" d="M 0,-2.58 Q 0,-2.58 1.61,-2.54 3.22,-2.50 4.59,-2.50 5.96,-2.51 7.24,-2.53 8.51,-2.54 9.74,-2.56 10.97,-2.58 12.28,-2.66 13.58,-2.74 14.80,-2.81 16.02,-2.88 17.55,-2.93 19.08,-2.97 20.24,-3.02 21.41,-3.07 22.97,-3.08 24.53,-3.09 25.02,-3.01 25.52,-2.93 25.96,-2.69 26.40,-2.46 26.75,-2.10 27.09,-1.73 27.30,-1.28 27.51,-0.82 27.57,-0.33 27.62,0.16 27.51,0.65 27.41,1.14 27.15,1.57 26.89,2.00 26.51,2.32 26.13,2.65 25.66,2.83 25.20,3.02 24.70,3.05 24.20,3.07 23.71,2.94 23.23,2.80 22.82,2.52 22.40,2.24 22.10,1.84 21.80,1.44 21.64,0.97 21.48,0.50 21.48,-0.00 21.48,-0.50 21.64,-0.97 21.80,-1.45 22.10,-1.84 22.40,-2.24 22.82,-2.52 23.23,-2.80 23.71,-2.94 24.20,-3.07 24.70,-3.04 25.20,-3.02 25.66,-2.83 26.13,-2.65 26.51,-2.32 26.89,-2.00 27.15,-1.57 27.41,-1.14 27.51,-0.65 27.62,-0.16 27.57,0.33 27.51,0.82 27.30,1.28 27.09,1.73 26.75,2.10 26.40,2.46 25.96,2.69 25.52,2.93 25.02,3.01 24.53,3.09 24.53,3.09 24.53,3.09 22.97,3.08 21.41,3.07 20.24,3.02 19.08,2.97 17.55,2.93 16.02,2.88 14.80,2.81 13.58,2.74 12.28,2.66 10.97,2.58 9.74,2.56 8.51,2.54 7.24,2.53 5.96,2.51 4.59,2.50 3.22,2.50 1.61,2.54 0,2.58 -0.30,2.54 -0.61,2.50 -0.90,2.39 -1.19,2.28 -1.45,2.10 -1.71,1.93 -1.91,1.69 -2.12,1.46 -2.26,1.19 -2.41,0.91 -2.48,0.61 -2.56,0.31 -2.56,-0.00 -2.56,-0.31 -2.48,-0.61 -2.41,-0.91 -2.26,-1.19 -2.12,-1.46 -1.91,-1.69 -1.71,-1.93 -1.45,-2.10 -1.19,-2.28 -0.90,-2.39 -0.61,-2.50 -0.30,-2.54 0.00,-2.58 0.00,-2.58 L 0,-2.58 Z"></path></g><g transform="translate(406.79998779296875 254.8000030517578) rotate(0 16.800018310546875 0.399993896484375)" stroke="none"><path fill="#1e1e1e" d="M 0,-2.03 Q 0,-2.03 2.3,-1.93 4.6,-1.84 7.41,-1.76 10.23,-1.69 12.81,-1.64 15.38,-1.59 18.55,-1.55 21.72,-1.51 24.21,-1.48 26.71,-1.46 28.23,-1.55 29.75,-1.64 31.79,-1.30 33.84,-0.97 34.08,-0.83 34.33,-0.68 34.51,-0.47 34.70,-0.26 34.81,-0.00 34.91,0.25 34.93,0.53 34.95,0.81 34.88,1.09 34.81,1.36 34.65,1.60 34.50,1.83 34.28,2.01 34.06,2.18 33.79,2.27 33.52,2.37 33.24,2.37 32.96,2.38 32.69,2.29 32.42,2.20 32.19,2.04 31.97,1.87 31.81,1.64 31.64,1.41 31.57,1.13 31.49,0.86 31.50,0.58 31.51,0.30 31.61,0.04 31.71,-0.22 31.89,-0.43 32.07,-0.65 32.31,-0.80 32.55,-0.95 32.82,-1.01 33.10,-1.08 33.38,-1.05 33.66,-1.03 33.92,-0.91 34.17,-0.80 34.38,-0.61 34.59,-0.41 34.73,-0.17 34.86,0.07 34.91,0.35 34.96,0.63 34.92,0.90 34.88,1.18 34.75,1.43 34.62,1.69 34.42,1.88 34.22,2.08 33.96,2.20 33.71,2.32 33.43,2.36 33.15,2.39 32.87,2.34 32.59,2.28 32.59,2.28 32.59,2.28 31.17,1.96 29.75,1.64 28.23,1.55 26.71,1.46 24.21,1.48 21.72,1.51 18.55,1.55 15.38,1.59 12.81,1.64 10.23,1.69 7.41,1.76 4.6,1.84 2.3,1.93 0,2.03 -0.24,2.00 -0.48,1.97 -0.71,1.88 -0.94,1.79 -1.14,1.66 -1.34,1.52 -1.51,1.33 -1.67,1.15 -1.78,0.93 -1.90,0.72 -1.95,0.48 -2.01,0.24 -2.01,-0.00 -2.01,-0.24 -1.95,-0.48 -1.90,-0.72 -1.78,-0.93 -1.67,-1.15 -1.51,-1.33 -1.34,-1.52 -1.14,-1.66 -0.94,-1.79 -0.71,-1.88 -0.48,-1.97 -0.24,-2.00 0.00,-2.03 0.00,-2.03 L 0,-2.03 Z"></path></g><g transform="translate(343.5999755859375 227.59999084472656) rotate(0 11.600006103515625 0.4000091552734375)" stroke="none"><path fill="#1e1e1e" d="M 0,-2.35 Q 0,-2.35 2.76,-2.21 5.52,-2.08 8.53,-1.98 11.54,-1.87 13.28,-1.88 15.02,-1.90 16.22,-1.97 17.42,-2.05 20.35,-1.77 23.28,-1.49 23.63,-1.36 23.97,-1.24 24.26,-1.01 24.55,-0.78 24.75,-0.47 24.94,-0.16 25.03,0.18 25.12,0.54 25.10,0.90 25.07,1.27 24.93,1.61 24.78,1.95 24.54,2.22 24.30,2.49 23.98,2.68 23.66,2.86 23.30,2.93 22.94,3.00 22.57,2.95 22.21,2.90 21.88,2.74 21.55,2.58 21.29,2.32 21.03,2.07 20.87,1.74 20.70,1.41 20.65,1.05 20.60,0.68 20.67,0.32 20.73,-0.03 20.91,-0.35 21.09,-0.67 21.36,-0.91 21.64,-1.16 21.97,-1.31 22.31,-1.45 22.67,-1.49 23.04,-1.52 23.40,-1.43 23.75,-1.34 24.06,-1.15 24.37,-0.95 24.60,-0.67 24.83,-0.38 24.96,-0.04 25.09,0.30 25.10,0.66 25.11,1.03 25.01,1.38 24.90,1.73 24.69,2.03 24.48,2.33 24.18,2.54 23.88,2.76 23.53,2.87 23.18,2.98 22.82,2.97 22.45,2.96 22.45,2.96 22.45,2.96 19.94,2.51 17.42,2.05 16.22,1.97 15.02,1.90 13.28,1.88 11.54,1.87 8.53,1.98 5.52,2.08 2.76,2.21 0,2.35 -0.28,2.32 -0.56,2.28 -0.82,2.18 -1.09,2.08 -1.32,1.92 -1.56,1.76 -1.74,1.54 -1.93,1.33 -2.06,1.08 -2.20,0.83 -2.26,0.55 -2.33,0.28 -2.33,-0.00 -2.33,-0.28 -2.26,-0.55 -2.20,-0.83 -2.06,-1.08 -1.93,-1.33 -1.74,-1.54 -1.56,-1.76 -1.32,-1.92 -1.09,-2.08 -0.82,-2.18 -0.56,-2.28 -0.28,-2.32 0.00,-2.35 0.00,-2.35 L 0,-2.35 Z"></path></g><g transform="translate(339.5999755859375 251.59999084472656) rotate(0 11.20001220703125 -0.399993896484375)" stroke="none"><path fill="#1e1e1e" d="M -0.24,-2.16 Q -0.24,-2.16 1.84,-2.29 3.92,-2.42 7.41,-2.43 10.90,-2.45 13.28,-2.42 15.66,-2.40 16.90,-2.51 18.14,-2.62 20.06,-2.68 21.98,-2.74 22.29,-2.69 22.60,-2.64 22.88,-2.50 23.16,-2.35 23.38,-2.12 23.59,-1.89 23.73,-1.61 23.86,-1.32 23.90,-1.01 23.93,-0.70 23.87,-0.39 23.80,-0.08 23.64,0.18 23.48,0.45 23.24,0.66 23.00,0.86 22.71,0.98 22.42,1.10 22.10,1.12 21.79,1.13 21.48,1.05 21.18,0.97 20.92,0.79 20.65,0.62 20.46,0.37 20.27,0.12 20.17,-0.17 20.07,-0.47 20.07,-0.78 20.06,-1.10 20.16,-1.40 20.26,-1.70 20.45,-1.95 20.64,-2.20 20.90,-2.38 21.16,-2.56 21.46,-2.64 21.77,-2.73 22.08,-2.71 22.40,-2.70 22.69,-2.58 22.98,-2.47 23.22,-2.26 23.47,-2.06 23.63,-1.79 23.79,-1.52 23.86,-1.21 23.93,-0.91 23.90,-0.59 23.87,-0.28 23.74,0.00 23.60,0.28 23.39,0.51 23.17,0.74 22.90,0.89 22.62,1.04 22.31,1.09 22.00,1.14 22.00,1.14 22.00,1.14 20.09,1.11 18.19,1.08 16.96,1.00 15.72,0.92 13.36,1.03 11.01,1.14 7.68,1.32 4.35,1.50 2.29,1.83 0.24,2.16 -0.02,2.16 -0.28,2.16 -0.53,2.09 -0.79,2.02 -1.02,1.90 -1.25,1.78 -1.45,1.60 -1.64,1.42 -1.79,1.21 -1.93,0.99 -2.03,0.74 -2.12,0.49 -2.14,0.23 -2.17,-0.02 -2.14,-0.28 -2.11,-0.54 -2.01,-0.78 -1.91,-1.03 -1.76,-1.24 -1.61,-1.46 -1.41,-1.63 -1.21,-1.80 -0.98,-1.92 -0.75,-2.04 -0.49,-2.10 -0.24,-2.16 -0.24,-2.16 L -0.24,-2.16 Z"></path></g><g transform="translate(268.4000244140625 223.59999084472656) rotate(0 18.399993896484375 2)" stroke="none"><path fill="#1e1e1e" d="M 0.18,-1.88 Q 0.18,-1.88 2.48,-1.57 4.77,-1.26 10.79,-0.65 16.82,-0.04 20.74,0.23 24.65,0.51 27.47,0.64 30.28,0.77 33.16,1.40 36.04,2.03 36.30,2.15 36.55,2.26 36.75,2.45 36.95,2.63 37.08,2.88 37.21,3.12 37.26,3.39 37.31,3.66 37.27,3.93 37.23,4.21 37.10,4.45 36.97,4.69 36.78,4.89 36.58,5.08 36.33,5.20 36.08,5.31 35.81,5.35 35.53,5.38 35.26,5.32 34.99,5.27 34.76,5.13 34.52,4.99 34.34,4.78 34.16,4.57 34.05,4.32 33.95,4.06 33.93,3.79 33.91,3.51 33.98,3.25 34.05,2.98 34.21,2.75 34.36,2.52 34.58,2.35 34.79,2.18 35.05,2.09 35.31,2.00 35.59,2.00 35.86,2.00 36.13,2.08 36.39,2.17 36.61,2.33 36.83,2.49 36.99,2.72 37.14,2.95 37.22,3.21 37.30,3.48 37.29,3.75 37.27,4.03 37.17,4.28 37.08,4.54 36.90,4.75 36.72,4.97 36.49,5.11 36.25,5.25 35.99,5.32 35.72,5.38 35.44,5.35 35.17,5.32 35.17,5.32 35.17,5.32 32.66,4.52 30.16,3.72 27.31,3.65 24.47,3.58 20.50,3.38 16.52,3.19 10.47,2.68 4.42,2.18 2.11,2.03 -0.18,1.88 -0.41,1.83 -0.63,1.78 -0.83,1.68 -1.04,1.58 -1.21,1.43 -1.39,1.28 -1.52,1.10 -1.65,0.91 -1.74,0.70 -1.82,0.49 -1.86,0.26 -1.89,0.03 -1.87,-0.18 -1.84,-0.41 -1.77,-0.62 -1.69,-0.84 -1.56,-1.03 -1.44,-1.22 -1.27,-1.38 -1.10,-1.53 -0.90,-1.64 -0.70,-1.75 -0.48,-1.81 -0.26,-1.87 -0.03,-1.87 0.18,-1.88 0.18,-1.88 L 0.18,-1.88 Z"></path></g><g transform="translate(266.79998779296875 254.8000030517578) rotate(0 15.20001220703125 0.399993896484375)" stroke="none"><path fill="#1e1e1e" d="M 0,-2.25 Q 0,-2.25 1.84,-2.20 3.68,-2.15 5.84,-2.03 8.00,-1.92 10.76,-1.84 13.52,-1.76 15.61,-1.71 17.70,-1.65 18.82,-1.75 19.94,-1.86 21.41,-2.02 22.87,-2.18 24.12,-2.30 25.37,-2.42 28.70,-1.80 32.02,-1.19 32.27,-0.85 32.52,-0.52 32.65,-0.13 32.78,0.26 32.78,0.67 32.77,1.09 32.64,1.48 32.50,1.87 32.25,2.20 31.99,2.53 31.65,2.76 31.30,2.99 30.90,3.09 30.50,3.20 30.09,3.18 29.67,3.15 29.29,2.99 28.90,2.84 28.59,2.57 28.28,2.29 28.07,1.94 27.85,1.58 27.77,1.17 27.68,0.77 27.73,0.36 27.78,-0.05 27.96,-0.42 28.13,-0.80 28.42,-1.10 28.71,-1.39 29.08,-1.59 29.45,-1.78 29.86,-1.84 30.27,-1.90 30.68,-1.83 31.08,-1.76 31.45,-1.57 31.81,-1.37 32.10,-1.06 32.38,-0.76 32.55,-0.38 32.72,-0.00 32.76,0.40 32.80,0.81 32.71,1.22 32.62,1.62 32.40,1.97 32.19,2.33 31.87,2.59 31.55,2.86 31.16,3.01 30.77,3.16 30.36,3.18 29.95,3.20 29.55,3.08 29.15,2.97 28.81,2.73 28.47,2.50 28.47,2.50 28.47,2.50 26.92,2.46 25.37,2.42 24.12,2.30 22.87,2.18 21.41,2.02 19.94,1.86 18.82,1.75 17.70,1.65 15.61,1.71 13.52,1.76 10.76,1.84 8.00,1.92 5.84,2.03 3.68,2.15 1.84,2.20 0,2.25 -0.26,2.21 -0.53,2.18 -0.79,2.09 -1.04,1.99 -1.27,1.84 -1.49,1.68 -1.67,1.48 -1.85,1.27 -1.97,1.03 -2.10,0.79 -2.17,0.53 -2.23,0.27 -2.23,-0.00 -2.23,-0.27 -2.17,-0.53 -2.10,-0.79 -1.97,-1.03 -1.85,-1.27 -1.67,-1.48 -1.49,-1.68 -1.27,-1.84 -1.04,-1.99 -0.79,-2.09 -0.53,-2.18 -0.26,-2.21 0.00,-2.25 0.00,-2.25 L 0,-2.25 Z"></path></g><g stroke-linecap="round" transform="translate(346.5998840332031 404.3999938964844) rotate(0 14.79998779296875 8)"><path d="M4 0 C9.24 1.02, 16.57 -0.93, 25.6 0 M4 0 C11.23 -0.89, 20.2 0.01, 25.6 0 M25.6 0 C27.69 0.64, 30.9 1.68, 29.6 4 M25.6 0 C26.79 -1.61, 30.89 0.2, 29.6 4 M29.6 4 C29.05 6.06, 28.9 8.37, 29.6 12 M29.6 4 C29.84 7.37, 29.92 10.55, 29.6 12 M29.6 12 C29.27 14.35, 27.61 14.41, 25.6 16 M29.6 12 C28.81 14.22, 28 18.22, 25.6 16 M25.6 16 C19.27 15.76, 12.71 16.69, 4 16 M25.6 16 C18.87 15.64, 10.2 16.14, 4 16 M4 16 C2.87 16.99, 0.23 16.05, 0 12 M4 16 C3.13 18.15, 2.24 13.06, 0 12 M0 12 C-0.81 8.71, 0.54 5.7, 0 4 M0 12 C0.2 10.25, 0.18 7.71, 0 4 M0 4 C0.85 -0.35, 1 -1.04, 4 0 M0 4 C1.76 -0.44, 2.02 1.16, 4 0" stroke="#1e1e1e" stroke-width="2" fill="none"></path></g><g stroke-linecap="round" transform="translate(387.7997741699219 402.8000030517578) rotate(0 14.79998779296875 8)"><path d="M4 0 C10.2 -1.04, 18.37 1.78, 25.6 0 M4 0 C12.53 0.35, 20.46 0.47, 25.6 0 M25.6 0 C29.57 0.35, 28.31 -0.07, 29.6 4 M25.6 0 C29.56 -1.13, 29.82 1.65, 29.6 4 M29.6 4 C28.83 5.53, 30.33 8.81, 29.6 12 M29.6 4 C29.9 7.26, 29.57 10.12, 29.6 12 M29.6 12 C28.95 13.07, 27.58 15.61, 25.6 16 M29.6 12 C29.33 16.88, 27.81 14.34, 25.6 16 M25.6 16 C16.24 16.43, 9.31 17.38, 4 16 M25.6 16 C17.42 15.93, 11.28 16.39, 4 16 M4 16 C1.57 17.38, 1.56 16.54, 0 12 M4 16 C3.57 14.4, 1.17 16.72, 0 12 M0 12 C0.68 9.26, -0.24 8.31, 0 4 M0 12 C0.17 10.03, 0.12 7.95, 0 4 M0 4 C-0.33 0.29, 2.86 -1.54, 4 0 M0 4 C0.68 2.49, -0.12 0.36, 4 0" stroke="#1e1e1e" stroke-width="2" fill="none"></path></g><g stroke-linecap="round" transform="translate(426.1999206542969 402.79998779296875) rotate(0 14.79998779296875 8)"><path d="M4 0 C13.01 1.99, 20.92 -1.48, 25.6 0 M4 0 C8.68 0.28, 14.59 0.13, 25.6 0 M25.6 0 C26.98 -1.4, 30.72 0.35, 29.6 4 M25.6 0 C28.48 0.32, 28.77 -0.29, 29.6 4 M29.6 4 C30.32 6.58, 30.22 8.35, 29.6 12 M29.6 4 C29.59 6.69, 29.52 9.18, 29.6 12 M29.6 12 C28.91 14.27, 28.03 17.93, 25.6 16 M29.6 12 C29.14 13, 30.48 15.68, 25.6 16 M25.6 16 C20.44 17.48, 14.59 17.35, 4 16 M25.6 16 C20.89 16.5, 14.76 16.7, 4 16 M4 16 C2.89 17.87, 1.95 13.27, 0 12 M4 16 C2.51 18.05, -1 12.55, 0 12 M0 12 C-0.37 10.49, -0.61 8.64, 0 4 M0 12 C0.13 8.58, -0.11 5.62, 0 4 M0 4 C1.53 -0.2, 1.93 1.01, 4 0 M0 4 C-1.46 1.69, 0.2 -2.14, 4 0" stroke="#1e1e1e" stroke-width="2" fill="none"></path></g><g stroke-linecap="round" transform="translate(465.7999572753906 405.1999816894531) rotate(0 14.79998779296875 8)"><path d="M4 0 C9.15 -0.17, 14.89 -0.82, 25.6 0 M4 0 C11.04 -0.79, 16.49 0.58, 25.6 0 M25.6 0 C27.84 -0.76, 27.7 3.13, 29.6 4 M25.6 0 C29.3 1.96, 28.06 2.54, 29.6 4 M29.6 4 C30.15 5.95, 30.38 7.33, 29.6 12 M29.6 4 C29.71 6.23, 29.24 9, 29.6 12 M29.6 12 C30.11 15.48, 28.35 17.25, 25.6 16 M29.6 12 C30.62 12.37, 27.86 17.59, 25.6 16 M25.6 16 C17.17 15.04, 10.6 17.42, 4 16 M25.6 16 C20.52 15.09, 14.24 15.28, 4 16 M4 16 C3.09 17.63, 1.39 14.58, 0 12 M4 16 C3.5 15.49, 0.56 15.35, 0 12 M0 12 C-0.33 8.28, 0.47 6.07, 0 4 M0 12 C0.36 8.95, 0.22 6.29, 0 4 M0 4 C-0.12 0.45, 2.79 0.58, 4 0 M0 4 C1.97 0.2, 2.39 1.95, 4 0" stroke="#1e1e1e" stroke-width="2" fill="none"></path></g><g stroke-linecap="round" transform="translate(506.9998474121094 403.59999084472656) rotate(0 14.79998779296875 8)"><path d="M4 0 C10.7 -0.65, 20.14 -1.43, 25.6 0 M4 0 C10.59 0.76, 16.83 -0.21, 25.6 0 M25.6 0 C26.37 1.79, 30.49 3.04, 29.6 4 M25.6 0 C26.73 1.2, 27.49 2.01, 29.6 4 M29.6 4 C30.41 6.69, 29.74 8.8, 29.6 12 M29.6 4 C29.33 5.98, 29.74 8.08, 29.6 12 M29.6 12 C29.69 15.92, 29.16 14.01, 25.6 16 M29.6 12 C29.2 16.26, 29.02 17.03, 25.6 16 M25.6 16 C20.41 17.52, 15.34 16.73, 4 16 M25.6 16 C19.82 15.27, 16.62 16.65, 4 16 M4 16 C2.72 15.92, 1.88 14.23, 0 12 M4 16 C1.9 16.69, 1.74 13.26, 0 12 M0 12 C0.46 10.17, 0.3 7.48, 0 4 M0 12 C0.09 9.46, -0.08 7.51, 0 4 M0 4 C1.46 1.91, 3.05 -0.99, 4 0 M0 4 C1.06 3.28, 3.5 0.12, 4 0" stroke="#1e1e1e" stroke-width="2" fill="none"></path></g><g stroke-linecap="round" transform="translate(545.3999938964844 403.5999755859375) rotate(0 14.79998779296875 8)"><path d="M4 0 C10.23 -1.36, 16.99 1.73, 25.6 0 M4 0 C8.56 -0.51, 12.61 0.77, 25.6 0 M25.6 0 C29.16 1.71, 28.26 2.38, 29.6 4 M25.6 0 C26.16 0.68, 30.44 2.84, 29.6 4 M29.6 4 C29.77 6.1, 29.23 9.7, 29.6 12 M29.6 4 C29.64 6.04, 29.56 8, 29.6 12 M29.6 12 C30.49 12.67, 27.92 17.38, 25.6 16 M29.6 12 C30.35 15.7, 26.22 14.56, 25.6 16 M25.6 16 C18.81 16.98, 12.86 16.53, 4 16 M25.6 16 C21.63 16.69, 16.59 15.84, 4 16 M4 16 C3.21 15.56, 0.49 15.26, 0 12 M4 16 C3.07 14.6, -1.39 13.57, 0 12 M0 12 C0.22 9.63, -0.28 9.2, 0 4 M0 12 C-0.06 10.21, 0.26 8.88, 0 4 M0 4 C1.72 0.34, 2.25 1.69, 4 0 M0 4 C2.16 1.45, 1.86 -0.67, 4 0" stroke="#1e1e1e" stroke-width="2" fill="none"></path></g><g stroke-linecap="round" transform="translate(391.4000549316406 81.99996948242188) rotate(0 14.79998779296875 8)"><path d="M4 0 C12.15 0.83, 21.75 -0.08, 25.6 0 M4 0 C11.34 -0.53, 19.58 -0.05, 25.6 0 M25.6 0 C29.29 1.01, 31.5 2.28, 29.6 4 M25.6 0 C27.24 0.8, 31.73 -0.55, 29.6 4 M29.6 4 C29.63 6.12, 29.64 9.67, 29.6 12 M29.6 4 C29.49 6.12, 29.5 7.93, 29.6 12 M29.6 12 C31.59 13.82, 30.22 15.17, 25.6 16 M29.6 12 C30.65 16.7, 29.8 17.79, 25.6 16 M25.6 16 C20.21 14.15, 11.95 15.61, 4 16 M25.6 16 C18.31 15.61, 12.31 15.9, 4 16 M4 16 C2.23 14.34, -0.2 13.39, 0 12 M4 16 C3.03 14.4, -1.04 14.26, 0 12 M0 12 C-0.33 9.86, -0.22 6.42, 0 4 M0 12 C0.04 9.26, -0.19 6.15, 0 4 M0 4 C-0.87 2.9, 0.55 -0.03, 4 0 M0 4 C-0.68 1.89, 2.62 -1.98, 4 0" stroke="#1e1e1e" stroke-width="2" fill="none"></path></g><g stroke-linecap="round" transform="translate(432.5999450683594 80.39997863769531) rotate(0 14.79998779296875 8)"><path d="M4 0 C10.59 -0.33, 14.56 -2.01, 25.6 0 M4 0 C9.85 0.03, 16.79 0.63, 25.6 0 M25.6 0 C30.17 0.95, 28.71 2.03, 29.6 4 M25.6 0 C30.4 -1.88, 30.85 0.88, 29.6 4 M29.6 4 C29.66 5.98, 29.21 8.36, 29.6 12 M29.6 4 C29.42 6.94, 29.97 9.85, 29.6 12 M29.6 12 C31.55 13.84, 29.18 17.77, 25.6 16 M29.6 12 C31.13 16.46, 28.14 16.25, 25.6 16 M25.6 16 C17.18 15.3, 10.95 17.58, 4 16 M25.6 16 C19.92 15.87, 13.94 15.1, 4 16 M4 16 C1.14 14.72, 1.47 13.27, 0 12 M4 16 C0.3 15.59, 0.66 12.39, 0 12 M0 12 C-0.25 10.07, 0.74 9.45, 0 4 M0 12 C-0.14 9.23, -0.2 6.11, 0 4 M0 4 C-0.78 1.3, 0.74 0.49, 4 0 M0 4 C1.29 -0.64, 2.47 -1.66, 4 0" stroke="#1e1e1e" stroke-width="2" fill="none"></path></g><g stroke-linecap="round" transform="translate(471.0000915527344 80.39996337890625) rotate(0 14.79998779296875 8)"><path d="M4 0 C12.52 -1.91, 18.03 -1.16, 25.6 0 M4 0 C9.77 0.53, 15.47 0.49, 25.6 0 M25.6 0 C27.37 0.7, 31.46 -0.3, 29.6 4 M25.6 0 C29.52 -0.46, 28.37 1.47, 29.6 4 M29.6 4 C29.21 6.1, 30.21 7.07, 29.6 12 M29.6 4 C29.97 6.47, 29.96 9.1, 29.6 12 M29.6 12 C30.51 16.43, 29.6 17.56, 25.6 16 M29.6 12 C29.47 14.92, 29.34 17.11, 25.6 16 M25.6 16 C21.55 17.74, 16.46 15.02, 4 16 M25.6 16 C20.31 15.16, 14.03 15.35, 4 16 M4 16 C2.81 14.61, -0.9 14.31, 0 12 M4 16 C2 13.72, -2.28 13.48, 0 12 M0 12 C0.72 9.77, 0.73 6.43, 0 4 M0 12 C-0.15 9.21, -0.13 5.79, 0 4 M0 4 C-0.6 1.82, 2.45 -1.72, 4 0 M0 4 C1.14 -0.33, 1.75 -1.09, 4 0" stroke="#1e1e1e" stroke-width="2" fill="none"></path></g><g transform="translate(180.4000244140625 96.40000915527344) rotate(0 54.399993896484375 -0.800018310546875)" stroke="none"><path fill="#1e1e1e" d="M 0,-1.65 Q 0,-1.65 1.60,-1.71 3.21,-1.77 5.05,-1.77 6.88,-1.78 9.50,-1.72 12.12,-1.65 14.16,-1.63 16.19,-1.60 18.20,-1.59 20.22,-1.58 22.45,-1.54 24.69,-1.51 27.25,-1.48 29.81,-1.45 33.29,-0.97 36.78,-0.48 40.23,-0.27 43.68,-0.07 46.54,0.01 49.39,0.10 51.29,0.10 53.19,0.09 54.57,-0.19 55.94,-0.49 57.71,-0.82 59.47,-1.15 61.59,-1.63 63.71,-2.11 65.18,-2.18 66.64,-2.25 67.74,-2.51 68.84,-2.77 69.95,-2.94 71.05,-3.11 72.24,-3.19 73.44,-3.28 75.10,-3.26 76.76,-3.24 78.21,-3.43 79.66,-3.63 81.11,-3.75 82.57,-3.87 83.80,-4.34 85.03,-4.80 86.12,-4.97 87.22,-5.13 88.74,-5.24 90.25,-5.34 91.98,-5.37 93.72,-5.40 94.88,-5.45 96.04,-5.49 97.32,-5.55 98.59,-5.61 100.58,-5.63 102.58,-5.65 104.27,-5.65 105.97,-5.65 107.03,-5.68 108.09,-5.70 108.49,-5.66 108.88,-5.61 109.25,-5.47 109.63,-5.33 109.96,-5.10 110.28,-4.87 110.55,-4.57 110.81,-4.27 111.00,-3.92 111.18,-3.57 111.28,-3.18 111.37,-2.79 111.37,-2.39 111.37,-2.00 111.28,-1.61 111.18,-1.22 111.00,-0.87 110.81,-0.51 110.55,-0.22 110.28,0.07 109.96,0.30 109.63,0.53 109.25,0.67 108.88,0.81 108.48,0.86 108.09,0.90 106.09,1.22 104.10,1.54 102.91,1.57 101.72,1.60 99.66,1.60 97.61,1.60 96.46,1.58 95.30,1.56 93.66,1.47 92.02,1.37 90.86,1.36 89.71,1.36 88.06,1.28 86.42,1.20 84.80,1.14 83.19,1.07 81.12,0.92 79.05,0.76 76.33,0.62 73.61,0.49 71.08,0.38 68.54,0.28 65.40,0.20 62.25,0.13 59.69,-0.15 57.12,-0.44 55.18,-0.55 53.24,-0.65 51.95,-0.59 50.66,-0.54 49.10,-0.39 47.55,-0.24 46.09,-0.09 44.63,0.06 43.48,0.15 42.34,0.24 41.07,0.34 39.80,0.44 38.26,0.53 36.73,0.61 35.64,0.65 34.55,0.69 32.30,0.42 30.06,0.15 28.58,-0.01 27.10,-0.18 25.96,-0.22 24.82,-0.26 23.36,-0.23 21.90,-0.21 20.46,-0.14 19.02,-0.08 17.35,-0.04 15.67,-0.00 14.36,0.02 13.05,0.04 11.60,0.24 10.15,0.43 9.16,1.01 8.16,1.60 6.05,2.03 3.95,2.47 3.41,2.43 2.87,2.40 2.37,2.19 1.88,1.99 1.47,1.63 1.06,1.28 0.79,0.82 0.52,0.35 0.41,-0.17 0.30,-0.70 0.36,-1.23 0.43,-1.77 0.66,-2.25 0.89,-2.74 1.27,-3.13 1.64,-3.51 2.12,-3.76 2.60,-4.01 3.13,-4.09 3.67,-4.17 4.20,-4.08 4.73,-3.98 5.20,-3.72 5.67,-3.47 6.04,-3.07 6.41,-2.67 6.63,-2.18 6.85,-1.69 6.90,-1.15 6.95,-0.62 6.83,-0.09 6.71,0.42 6.42,0.88 6.14,1.34 5.73,1.68 5.31,2.03 4.81,2.22 4.30,2.42 3.77,2.44 3.23,2.46 2.71,2.31 2.19,2.16 1.75,1.85 1.31,1.54 0.99,1.11 0.66,0.68 0.50,0.17 0.33,-0.34 0.34,-0.88 0.35,-1.41 0.52,-1.92 0.70,-2.43 1.03,-2.86 1.36,-3.28 1.81,-3.58 2.26,-3.88 2.78,-4.02 3.31,-4.15 3.31,-4.15 3.30,-4.15 4.91,-4.57 6.52,-4.99 7.48,-5.45 8.45,-5.91 10.75,-6.18 13.05,-6.44 14.36,-6.42 15.67,-6.39 17.35,-6.35 19.03,-6.31 20.50,-6.23 21.96,-6.16 23.49,-6.08 25.03,-6.01 26.23,-5.96 27.44,-5.92 29.31,-5.90 31.18,-5.87 32.86,-5.68 34.55,-5.49 35.64,-5.45 36.73,-5.41 38.26,-5.33 39.80,-5.24 41.07,-5.14 42.34,-5.04 43.49,-4.95 44.63,-4.86 46.11,-4.69 47.59,-4.52 49.18,-4.33 50.77,-4.13 52.09,-3.99 53.40,-3.85 55.41,-3.76 57.42,-3.67 59.83,-3.50 62.25,-3.33 65.40,-3.40 68.54,-3.48 71.08,-3.58 73.61,-3.69 76.33,-3.82 79.05,-3.96 81.12,-4.12 83.19,-4.27 84.80,-4.34 86.42,-4.40 88.06,-4.48 89.70,-4.56 90.86,-4.57 92.01,-4.58 93.65,-4.67 95.28,-4.77 96.43,-4.80 97.57,-4.83 99.52,-4.87 101.46,-4.92 102.88,-4.96 104.29,-4.99 106.19,-5.35 108.09,-5.70 108.48,-5.66 108.88,-5.61 109.25,-5.47 109.63,-5.33 109.96,-5.10 110.28,-4.87 110.55,-4.57 110.81,-4.28 111.00,-3.92 111.18,-3.57 111.28,-3.18 111.37,-2.79 111.37,-2.40 111.37,-2.00 111.28,-1.61 111.18,-1.22 111.00,-0.87 110.81,-0.52 110.55,-0.22 110.28,0.07 109.96,0.30 109.63,0.53 109.25,0.67 108.88,0.81 108.49,0.86 108.09,0.90 107.03,0.88 105.97,0.85 104.27,0.85 102.58,0.85 100.58,0.83 98.59,0.81 97.32,0.75 96.04,0.69 94.88,0.65 93.72,0.60 91.99,0.58 90.27,0.55 88.88,0.47 87.49,0.40 86.34,0.40 85.20,0.40 84.08,0.69 82.96,0.97 81.66,1.05 80.37,1.13 78.60,1.41 76.82,1.69 75.23,1.75 73.65,1.81 71.70,1.86 69.75,1.90 68.27,2.14 66.80,2.39 64.48,2.43 62.15,2.47 60.91,2.67 59.67,2.87 58.04,2.80 56.41,2.73 54.78,2.86 53.15,2.99 51.23,2.92 49.31,2.84 46.42,2.77 43.53,2.69 39.96,2.51 36.40,2.32 33.10,1.89 29.81,1.45 27.25,1.48 24.69,1.51 22.45,1.54 20.22,1.58 18.20,1.59 16.19,1.60 14.16,1.63 12.12,1.65 9.50,1.72 6.88,1.78 5.05,1.77 3.21,1.77 1.60,1.71 0,1.65 -0.19,1.63 -0.39,1.60 -0.58,1.53 -0.76,1.46 -0.93,1.35 -1.09,1.23 -1.23,1.09 -1.36,0.94 -1.45,0.76 -1.54,0.58 -1.59,0.39 -1.64,0.19 -1.64,-0.00 -1.64,-0.19 -1.59,-0.39 -1.54,-0.58 -1.45,-0.76 -1.36,-0.94 -1.23,-1.09 -1.09,-1.24 -0.93,-1.35 -0.76,-1.46 -0.58,-1.53 -0.39,-1.60 -0.19,-1.63 0.00,-1.65 0.00,-1.65 L 0,-1.65 Z"></path></g><g stroke-linecap="round" transform="translate(671.6000366210938 80.40000915527344) rotate(0 24.39996337890625 9.600006103515625)"><path d="M4.8 0 C16.13 -0.62, 31.88 0.14, 44 0 M4.8 0 C14.4 -0.36, 23.97 0.45, 44 0 M44 0 C45.58 1.77, 47.11 0.14, 48.8 4.8 M44 0 C47.63 0.33, 50.62 3.71, 48.8 4.8 M48.8 4.8 C49.15 8.36, 49.09 9.38, 48.8 14.4 M48.8 4.8 C49.04 7.1, 48.94 9.18, 48.8 14.4 M48.8 14.4 C47.59 19.34, 47.98 19.14, 44 19.2 M48.8 14.4 C46.7 18.5, 45.16 17.61, 44 19.2 M44 19.2 C30.87 20.79, 16.21 18.47, 4.8 19.2 M44 19.2 C30.93 18.4, 17.32 19.04, 4.8 19.2 M4.8 19.2 C3.19 19.62, 1.04 18.89, 0 14.4 M4.8 19.2 C3.04 21.1, 1.39 19.73, 0 14.4 M0 14.4 C-0.34 10.69, 0.56 7.66, 0 4.8 M0 14.4 C0.43 11.5, -0.14 7.71, 0 4.8 M0 4.8 C0.01 0.05, 1.28 -0.38, 4.8 0 M0 4.8 C-2.24 1.37, 0.83 -0.16, 4.8 0" stroke="#1e1e1e" stroke-width="1" fill="none"></path></g><g stroke-linecap="round" transform="translate(514 80.40000915527344) rotate(0 16.399993896484375 9.199996948242188)"><path d="M4.6 0 C14.22 -0.7, 20.09 -0.22, 28.2 0 M4.6 0 C8.87 -0.05, 14.76 -0.02, 28.2 0 M28.2 0 C33.19 -0.28, 32.77 2.38, 32.8 4.6 M28.2 0 C32.16 0.87, 30.92 0.96, 32.8 4.6 M32.8 4.6 C33.4 6.97, 32.76 9.06, 32.8 13.8 M32.8 4.6 C32.88 8.39, 32.39 11.57, 32.8 13.8 M32.8 13.8 C31.34 16.42, 30.14 18.75, 28.2 18.4 M32.8 13.8 C31.55 15.35, 32.9 17.96, 28.2 18.4 M28.2 18.4 C17.78 17.52, 9.69 18.06, 4.6 18.4 M28.2 18.4 C22.98 18.41, 18.11 17.54, 4.6 18.4 M4.6 18.4 C0.05 20.01, -1.57 18.56, 0 13.8 M4.6 18.4 C-0.11 20.38, -0.06 14.9, 0 13.8 M0 13.8 C-0.84 10.89, 0.41 7.23, 0 4.6 M0 13.8 C-0.43 10.86, -0.46 8.07, 0 4.6 M0 4.6 C0.38 1.52, 0.56 0.84, 4.6 0 M0 4.6 C-1.71 0.66, 1.03 2.05, 4.6 0" stroke="#1e1e1e" stroke-width="1" fill="none"></path></g><g stroke-linecap="round" transform="translate(528.0960502563921 82) rotate(0 4.551950457741455 4.583167729640152)"><path d="M4.08 0.33 C5.05 0.2, 6.5 0.66, 7.28 1.14 C8.06 1.61, 8.52 2.32, 8.75 3.2 C8.99 4.08, 9.11 5.47, 8.69 6.41 C8.27 7.36, 7.16 8.42, 6.26 8.86 C5.36 9.31, 4.18 9.32, 3.28 9.09 C2.38 8.86, 1.45 8.34, 0.86 7.48 C0.27 6.63, -0.37 5.02, -0.24 3.95 C-0.12 2.89, 0.8 1.79, 1.59 1.09 C2.38 0.4, 4 -0.06, 4.5 -0.23 C5 -0.39, 4.67 -0.05, 4.59 0.09 M4.67 0.23 C5.49 0.25, 6.55 0.43, 7.29 1.09 C8.03 1.74, 8.97 3.2, 9.09 4.14 C9.22 5.07, 8.62 5.94, 8.03 6.7 C7.45 7.45, 6.43 8.31, 5.6 8.68 C4.78 9.04, 3.95 9.15, 3.07 8.88 C2.2 8.61, 0.92 7.95, 0.36 7.07 C-0.2 6.19, -0.49 4.51, -0.3 3.58 C-0.1 2.65, 0.69 2.16, 1.53 1.51 C2.37 0.85, 4.24 -0.02, 4.72 -0.34 C5.2 -0.66, 4.33 -0.57, 4.39 -0.41" stroke="#1e1e1e" stroke-width="1" fill="none"></path></g><g stroke-linecap="round"><g transform="translate(529.3965602799954 89.33306137406527) rotate(0 -2.6011192722845493 2.7499023861238356)"><path d="M-0.25 0.14 C-1.14 1.09, -4.49 4.64, -5.32 5.58 M0.27 -0.09 C-0.67 0.75, -4.71 4.11, -5.65 4.99" stroke="#1e1e1e" stroke-width="1" fill="none"></path></g></g><mask></mask><g transform="translate(555.6000366210938 93.99998474121094) rotate(0 11.5999755859375 -0.3999786376953125)" stroke="none"><path fill="#1e1e1e" d="M 0,-2.65 Q 0,-2.65 1.15,-2.67 2.3,-2.69 3.86,-2.75 5.42,-2.81 6.45,-3.18 7.47,-3.54 8.65,-3.99 9.83,-4.43 11.20,-4.58 12.57,-4.73 14.20,-4.79 15.83,-4.85 17.93,-4.57 20.04,-4.29 22.47,-3.15 24.89,-2.00 25.26,-1.62 25.63,-1.24 25.86,-0.76 26.09,-0.29 26.15,0.23 26.22,0.75 26.11,1.27 26.01,1.78 25.74,2.24 25.47,2.70 25.08,3.04 24.68,3.39 24.19,3.59 23.70,3.80 23.18,3.83 22.65,3.87 22.14,3.73 21.63,3.60 21.19,3.31 20.75,3.02 20.42,2.60 20.10,2.19 19.92,1.69 19.75,1.19 19.74,0.67 19.73,0.14 19.89,-0.36 20.05,-0.86 20.37,-1.28 20.68,-1.71 21.11,-2.01 21.55,-2.31 22.05,-2.46 22.56,-2.61 23.09,-2.59 23.61,-2.57 24.11,-2.38 24.60,-2.19 25.01,-1.85 25.41,-1.52 25.69,-1.07 25.97,-0.62 26.09,-0.11 26.21,0.40 26.16,0.92 26.11,1.45 25.90,1.93 25.68,2.41 25.33,2.80 24.97,3.19 24.51,3.44 24.04,3.70 23.52,3.79 23.00,3.88 22.48,3.80 21.96,3.73 21.49,3.49 21.02,3.24 21.02,3.24 21.02,3.25 19.80,2.63 18.59,2.02 17.22,1.83 15.84,1.65 14.78,1.63 13.71,1.60 12.49,1.50 11.27,1.40 9.52,1.84 7.78,2.28 6.64,2.55 5.50,2.81 3.90,2.75 2.3,2.69 1.15,2.67 0,2.65 -0.31,2.61 -0.63,2.57 -0.93,2.46 -1.23,2.35 -1.49,2.16 -1.76,1.98 -1.97,1.74 -2.18,1.50 -2.33,1.22 -2.48,0.94 -2.55,0.63 -2.63,0.31 -2.63,-0.00 -2.63,-0.32 -2.55,-0.63 -2.48,-0.94 -2.33,-1.22 -2.18,-1.50 -1.97,-1.74 -1.76,-1.98 -1.49,-2.16 -1.23,-2.35 -0.93,-2.46 -0.63,-2.57 -0.31,-2.61 0.00,-2.65 0.00,-2.65 L 0,-2.65 Z"></path></g><g transform="translate(107.5999755859375 25.199996948242188) rotate(0 14.4000244140625 10.800003051757812)" stroke="none"><path fill="#1e1e1e" d="M 1.26,-2.20 Q 1.26,-2.20 2.83,-1.20 4.40,-0.21 5.54,0.76 6.67,1.73 7.68,2.12 8.69,2.51 9.56,3.14 10.44,3.76 11.42,4.69 12.40,5.62 13.67,7.32 14.95,9.02 15.84,9.62 16.74,10.22 18.18,11.21 19.61,12.20 20.78,12.54 21.94,12.88 22.98,14.10 24.03,15.33 25.31,15.82 26.59,16.32 28.30,17.42 30.00,18.51 30.40,18.85 30.81,19.19 31.08,19.64 31.36,20.09 31.47,20.61 31.59,21.12 31.53,21.65 31.48,22.18 31.26,22.66 31.04,23.14 30.68,23.52 30.32,23.91 29.85,24.16 29.39,24.41 28.87,24.49 28.35,24.58 27.82,24.50 27.30,24.42 26.83,24.17 26.37,23.93 26.00,23.55 25.64,23.16 25.41,22.69 25.19,22.21 25.13,21.68 25.07,21.16 25.18,20.64 25.29,20.12 25.56,19.67 25.83,19.22 26.23,18.87 26.63,18.53 27.12,18.33 27.61,18.13 28.14,18.10 28.67,18.07 29.18,18.21 29.69,18.35 30.12,18.64 30.56,18.94 30.88,19.36 31.21,19.77 31.38,20.27 31.55,20.77 31.55,21.30 31.55,21.83 31.39,22.33 31.22,22.83 30.90,23.26 30.59,23.68 30.15,23.98 29.71,24.27 29.21,24.42 28.70,24.56 28.17,24.54 27.64,24.51 27.15,24.32 26.66,24.12 26.66,24.12 26.66,24.12 24.01,22.44 21.37,20.76 20.12,19.52 18.87,18.27 17.44,17.70 16.00,17.13 15.03,16.55 14.06,15.97 13.28,15.09 12.49,14.21 11.78,13.40 11.06,12.58 9.95,10.96 8.85,9.33 7.74,8.13 6.63,6.93 4.33,5.41 2.03,3.89 0.38,3.04 -1.26,2.20 -1.50,2.02 -1.75,1.84 -1.94,1.60 -2.14,1.36 -2.27,1.09 -2.40,0.81 -2.47,0.51 -2.53,0.21 -2.52,-0.09 -2.51,-0.39 -2.42,-0.69 -2.34,-0.98 -2.19,-1.25 -2.04,-1.51 -1.82,-1.74 -1.61,-1.96 -1.35,-2.12 -1.10,-2.29 -0.81,-2.39 -0.51,-2.49 -0.21,-2.51 0.09,-2.54 0.39,-2.49 0.69,-2.44 0.97,-2.32 1.26,-2.20 1.26,-2.20 L 1.26,-2.20 Z"></path></g><g transform="translate(127.5999755859375 23.599990844726562) rotate(0 -9.5999755859375 8.800003051757812)" stroke="none"><path fill="#1e1e1e" d="M 0,2.59 Q 0,2.59 -1.05,2.59 -2.11,2.58 -2.97,3.48 -3.82,4.38 -5.67,5.11 -7.52,5.85 -9.09,6.76 -10.65,7.67 -11.59,8.66 -12.54,9.65 -13.65,10.73 -14.77,11.80 -15.01,12.95 -15.25,14.10 -15.61,15.76 -15.97,17.42 -16.09,17.92 -16.21,18.43 -16.48,18.87 -16.75,19.31 -17.15,19.64 -17.55,19.97 -18.04,20.15 -18.52,20.34 -19.04,20.36 -19.56,20.38 -20.06,20.23 -20.55,20.09 -20.98,19.79 -21.40,19.50 -21.71,19.08 -22.02,18.66 -22.18,18.17 -22.34,17.67 -22.33,17.16 -22.32,16.64 -22.15,16.15 -21.98,15.66 -21.66,15.25 -21.34,14.84 -20.91,14.56 -20.47,14.27 -19.97,14.14 -19.47,14.01 -18.95,14.04 -18.44,14.08 -17.96,14.28 -17.48,14.48 -17.09,14.82 -16.70,15.16 -16.44,15.61 -16.17,16.05 -16.07,16.56 -15.97,17.07 -16.03,17.58 -16.09,18.10 -16.32,18.57 -16.54,19.03 -16.90,19.41 -17.26,19.78 -17.73,20.01 -18.19,20.25 -18.70,20.33 -19.21,20.40 -19.72,20.31 -20.23,20.22 -20.69,19.97 -21.14,19.72 -21.49,19.34 -21.85,18.96 -22.06,18.49 -22.27,18.01 -22.32,17.50 -22.37,16.98 -22.37,16.98 -22.37,16.98 -21.84,14.28 -21.31,11.57 -20.58,10.00 -19.84,8.43 -18.73,7.43 -17.62,6.44 -16.27,5.44 -14.93,4.45 -13.41,3.40 -11.88,2.35 -10.56,1.58 -9.24,0.80 -7.62,-0.03 -6.00,-0.87 -4.24,-1.73 -2.48,-2.58 -1.24,-2.59 0,-2.59 0.31,-2.55 0.62,-2.51 0.91,-2.40 1.20,-2.29 1.46,-2.11 1.72,-1.94 1.92,-1.70 2.13,-1.47 2.28,-1.19 2.42,-0.91 2.50,-0.61 2.57,-0.31 2.57,0.00 2.57,0.31 2.50,0.61 2.42,0.92 2.28,1.19 2.13,1.47 1.92,1.70 1.72,1.94 1.46,2.11 1.20,2.29 0.91,2.40 0.62,2.51 0.31,2.55 -0.00,2.59 -0.00,2.59 L 0,2.59 Z"></path></g></svg>