<svg width="135" height="62" viewBox="0 0 135 62" fill="none" xmlns="http://www.w3.org/2000/svg">
<g clip-path="url(#clip0_31_1496)">
<path d="M102.396 11.0539C102.396 12.3711 102.922 13.6343 103.858 14.5656C104.794 15.4969 106.064 16.0201 107.387 16.0201H124.686C130.383 16.0201 135.001 20.8372 135.001 26.7801C135.001 32.723 130.385 37.5384 124.691 37.5405H96.4095V31.5787H124.691V31.673C125.954 31.6132 127.145 31.0718 128.018 30.1611C128.891 29.2504 129.378 28.0403 129.378 26.7819C129.378 25.5235 128.891 24.3135 128.018 23.4028C127.145 22.4921 125.954 21.9506 124.691 21.8908V21.9789H106.391V21.9325C103.663 21.6851 101.127 20.432 99.2801 18.4191C97.4333 16.4061 96.4093 13.7789 96.4093 11.0531C96.4093 8.32742 97.4333 5.70015 99.2801 3.68723C101.127 1.6743 103.663 0.421145 106.391 0.173816V0.12638H134.338V6.08773H107.329C106.015 6.10244 104.76 6.63222 103.837 7.56203C102.913 8.49185 102.396 9.74663 102.396 11.0539ZM91.2812 27.9391C91.1092 30.5417 89.9491 32.9817 88.036 34.7644C86.1229 36.5471 83.6 37.539 80.9791 37.539C78.3582 37.539 75.8353 36.5471 73.9222 34.7644C72.0091 32.9817 70.8489 30.5417 70.677 27.9391L70.6648 27.936V9.72883C70.6522 8.59547 70.1909 7.51279 69.3811 6.71578C68.5713 5.91877 67.4782 5.47175 66.3392 5.47175C65.2002 5.47175 64.1072 5.91877 63.2974 6.71578C62.4876 7.51279 62.0263 8.59547 62.0137 9.72883V37.8752H56.0284V9.72462H56.0395C56.2095 7.12071 57.3688 4.67875 59.2822 2.89444C61.1955 1.11012 63.7194 0.117188 66.3416 0.117188C68.9638 0.117188 71.4877 1.11012 73.4011 2.89444C75.3144 4.67875 76.4737 7.12071 76.6437 9.72462H76.6543V27.9339V27.937C76.6669 29.0704 77.1282 30.1531 77.938 30.9501C78.7479 31.7471 79.8409 32.1941 80.9799 32.1941C82.1189 32.1941 83.2119 31.7471 84.0217 30.9501C84.8316 30.1531 85.2928 29.0704 85.3054 27.937V27.9339V0.12638H91.2981V27.936L91.2812 27.9391ZM43.9238 9.72883C43.9301 9.15962 43.8229 8.59482 43.6084 8.06712C43.3939 7.53942 43.0763 7.05931 42.6741 6.65457C42.2719 6.24984 41.7929 5.92852 41.265 5.70923C40.7372 5.48993 40.1708 5.37702 39.5988 5.37702C39.0267 5.37702 38.4604 5.48993 37.9325 5.70923C37.4046 5.92852 36.9257 6.24984 36.5235 6.65457C36.1212 7.05931 35.8036 7.53942 35.5891 8.06712C35.3746 8.59482 35.2674 9.15962 35.2737 9.72883V27.9391H35.261C35.091 30.543 33.9317 32.985 32.0184 34.7693C30.1051 36.5536 27.5811 37.5466 24.9589 37.5466C22.3367 37.5466 19.8128 36.5536 17.8995 34.7693C15.9861 32.985 14.8268 30.543 14.6568 27.9391H14.642V9.72883C14.6294 8.59547 14.1681 7.51279 13.3583 6.71578C12.5484 5.91877 11.4554 5.47175 10.3164 5.47175C9.17743 5.47175 8.0844 5.91877 7.27457 6.71578C6.46474 7.51279 6.00346 8.59547 5.99086 9.72883V37.871H0.00292969V9.72883H0.0156429C0.185634 7.12493 1.34496 4.68296 3.25829 2.89865C5.17162 1.11434 7.69556 0.121402 10.3177 0.121402C12.9399 0.121402 15.4639 1.11434 17.3772 2.89865C19.2905 4.68296 20.4499 7.12493 20.6199 9.72883H20.6331V27.9391C20.6331 29.0807 21.0888 30.1755 21.8999 30.9827C22.7111 31.7899 23.8113 32.2433 24.9584 32.2433C26.1055 32.2433 27.2057 31.7899 28.0168 30.9827C28.828 30.1755 29.2837 29.0807 29.2837 27.9391V9.72883H29.2969C29.4669 7.12493 30.6263 4.68296 32.5396 2.89865C34.4529 1.11434 36.9768 0.121402 39.599 0.121402C42.2212 0.121402 44.7452 1.11434 46.6585 2.89865C48.5718 4.68296 49.7312 7.12493 49.9011 9.72883H49.9139V37.871H43.9238V9.72883Z" fill="url(#paint0_linear_31_1496)"/>
</g>
<path d="M36.8404 56.8682H34.9938L40.3347 42.3227H42.1529L47.4938 56.8682H45.6472L41.3006 44.6238H41.187L36.8404 56.8682ZM37.5222 51.1863H44.9654V52.7488H37.5222V51.1863ZM54.248 56.8682H49.7594V42.3227H54.4469C55.8579 42.3227 57.0653 42.6139 58.0691 43.1963C59.0729 43.7739 59.8423 44.6049 60.3773 45.6892C60.9123 46.7687 61.1799 48.0613 61.1799 49.567C61.1799 51.0822 60.91 52.3866 60.3702 53.4804C59.8304 54.5694 59.0444 55.4075 58.0123 55.9946C56.9801 56.577 55.7253 56.8682 54.248 56.8682ZM51.5208 55.3057H54.1344C55.3371 55.3057 56.3337 55.0737 57.1245 54.6096C57.9152 54.1456 58.5047 53.4851 58.8929 52.6281C59.2812 51.7711 59.4753 50.7507 59.4753 49.567C59.4753 48.3928 59.2836 47.3819 58.9 46.5344C58.5165 45.6821 57.9436 45.0287 57.1813 44.5741C56.419 44.1148 55.4696 43.8852 54.3333 43.8852H51.5208V55.3057ZM64.1344 42.3227H66.2367L71.1799 54.3966H71.3503L76.2935 42.3227H78.3958V56.8682H76.748V45.817H76.606L72.0605 56.8682H70.4696L65.9242 45.817H65.7821V56.8682H64.1344V42.3227ZM83.6887 42.3227V56.8682H81.9274V42.3227H83.6887ZM98.7544 42.3227V56.8682H97.0499L89.1238 45.4477H88.9817V56.8682H87.2203V42.3227H88.9249L96.8794 53.7716H97.0215V42.3227H98.7544Z" fill="white"/>
<defs>
<linearGradient id="paint0_linear_31_1496" x1="0.00292969" y1="0.117188" x2="135.001" y2="0.117188" gradientUnits="userSpaceOnUse">
<stop stop-color="#FF7001"/>
<stop offset="1" stop-color="#FF5B31"/>
</linearGradient>
<clipPath id="clip0_31_1496">
<rect width="135" height="37.7362" fill="white" transform="translate(0 0.131836)"/>
</clipPath>
</defs>
</svg>
